
<svg width="14" height="14" viewBox="0 0 14 14" fill="none" xmlns="http://www.w3.org/2000/svg">
<g clip-path="url(#clip0_1_134)">
<path d="M7 14C10.866 14 14 10.866 14 7C14 3.13401 10.866 0 7 0C3.13401 0 0 3.13401 0 7C0 10.866 3.13401 14 7 14Z" fill="#988430"/>
<path d="M7.00002 13.7758C10.7422 13.7758 13.7758 10.7422 13.7758 7.00002C13.7758 3.25786 10.7422 0.224243 7.00002 0.224243C3.25786 0.224243 0.224243 3.25786 0.224243 7.00002C0.224243 10.7422 3.25786 13.7758 7.00002 13.7758Z" fill="#7A6A2A"/>
<path d="M7.00002 13.633C10.6633 13.633 13.633 10.6633 13.633 6.99996C13.633 3.33664 10.6633 0.366943 7.00002 0.366943C3.33671 0.366943 0.367004 3.33664 0.367004 6.99996C0.367004 10.6633 3.33671 13.633 7.00002 13.633Z" fill="#BA9F33"/>
<path fill-rule="evenodd" clip-rule="evenodd" d="M3.06049 6.2524C3.02084 6.21619 2.97895 6.1799 2.94042 6.14369C2.9019 6.10747 2.86232 6.07118 2.82267 6.03497L2.70485 5.92297C2.68559 5.90371 2.6652 5.88676 2.64594 5.86742C2.62667 5.85047 2.60405 5.83121 2.58479 5.81418C2.42843 5.66582 2.27119 5.51746 2.117 5.36902C2.27671 5.51514 2.43306 5.66022 2.59278 5.80851L2.64825 5.86406C2.66752 5.88325 2.6879 5.90027 2.70716 5.91954L2.82491 6.02825C2.86456 6.06446 2.90309 6.10075 2.94274 6.14025C2.98239 6.17975 3.02091 6.21611 3.06056 6.25225L3.06049 6.2524ZM0.985426 6.23C0.985426 6.23 1.55401 6.28884 1.83155 6.32849C2.08863 6.36477 2.89286 6.4882 2.89286 6.4882L0.985426 6.23ZM0.985426 6.23C1.14514 6.24359 1.30485 6.26054 1.46456 6.27756C1.5461 6.28548 1.62427 6.29451 1.70245 6.30243L1.82244 6.31609C1.86209 6.32169 1.90062 6.32737 1.94026 6.33304L2.41604 6.4089L2.65385 6.44855C2.73203 6.46214 2.8102 6.47692 2.89174 6.49051C2.81356 6.4826 2.73203 6.47125 2.65385 6.4599L2.41604 6.42593L1.94026 6.35574C1.90062 6.35006 1.86209 6.34207 1.82244 6.33647L1.70238 6.32266C1.6242 6.31475 1.54266 6.3034 1.46449 6.29429C1.30478 6.2751 1.14506 6.25464 0.985352 6.22978L0.985426 6.23ZM2.83626 6.63634C2.83626 6.63634 2.22915 6.79045 2.02411 6.84936C1.82251 6.90484 1.21196 7.09061 1.21196 7.09061L2.83619 6.63641L2.83626 6.63634Z" fill="#CFB66C"/>
<path fill-rule="evenodd" clip-rule="evenodd" d="M2.83622 6.63635C2.70145 6.676 2.56742 6.71453 2.43071 6.75082L2.02519 6.85953C1.89042 6.89918 1.75639 6.93771 1.62199 6.97736L1.42039 7.03283C1.35357 7.0521 1.28562 7.06905 1.21655 7.08838C1.2833 7.06598 1.35133 7.04306 1.41815 7.0238L1.61975 6.95929C1.75453 6.91732 1.88855 6.87768 2.02295 6.83579C2.15997 6.80181 2.29481 6.76553 2.43183 6.73267C2.56205 6.69982 2.69913 6.66704 2.83622 6.63643V6.63635ZM1.29697 7.46441C1.36372 7.43947 2.13398 7.08047 2.31296 6.99662C2.40256 6.95466 2.663 6.86222 2.663 6.86222L1.29697 7.46441Z" fill="#CFB66C"/>
<path fill-rule="evenodd" clip-rule="evenodd" d="M1.29695 7.46442C1.35579 7.44202 1.41134 7.41462 1.46794 7.38856L1.63556 7.31038L1.97201 7.14843C2.08401 7.09519 2.19288 7.03643 2.30838 6.9864C2.3673 6.96154 2.42621 6.94115 2.48505 6.92189L2.57465 6.89359C2.60518 6.88568 2.63356 6.87657 2.66425 6.86865C2.55225 6.92189 2.43435 6.96721 2.3222 7.01926C2.2102 7.07481 2.09566 7.12013 1.98008 7.16993L1.63803 7.32054C1.52319 7.36705 1.41119 7.41686 1.29688 7.46442H1.29695ZM1.37162 7.77802C1.37162 7.77802 2.0693 7.36914 2.30943 7.23773C2.43517 7.16754 2.8418 6.96587 2.8418 6.96587L1.37162 7.77802Z" fill="#CFB66C"/>
<path fill-rule="evenodd" clip-rule="evenodd" d="M1.3717 7.77813C1.48945 7.70563 1.60952 7.63201 1.72958 7.55727L1.90878 7.44848C1.96993 7.41227 2.02885 7.37829 2.09119 7.34208C2.15234 7.30579 2.21126 7.26958 2.27353 7.23561C2.30317 7.2173 2.33423 7.2014 2.36641 7.18804L2.46154 7.14048C2.58728 7.07933 2.71302 7.01698 2.84555 6.96375C2.72549 7.03968 2.60199 7.10427 2.47856 7.17102C2.41741 7.20499 2.35506 7.23561 2.29391 7.26958C2.23276 7.30355 2.17385 7.33984 2.1115 7.37269C2.05035 7.40891 1.99144 7.44288 1.92917 7.47573L1.74451 7.57653L1.37185 7.77813H1.3717ZM2.83622 7.05544C2.83622 7.05544 2.4024 7.38845 2.26195 7.49492C2.12151 7.6014 1.70808 7.90044 1.70808 7.90044L2.83622 7.05544Z" fill="#CFB66C"/>
<path fill-rule="evenodd" clip-rule="evenodd" d="M5.32593 9.74108L5.10394 9.32085L5.23304 8.79527L6.15391 8.43964L5.76198 7.63548L5.95567 6.82333L6.31929 6.09607L7.44295 5.91941L8.26862 5.1322L10.0515 5.26698L10.4015 7.17329L9.72753 9.57345L9.34359 10.8161L7.78724 10.875L7.06462 10.3743L6.21849 10.0209L5.32593 9.74108Z" fill="#E2CC85"/>
<path fill-rule="evenodd" clip-rule="evenodd" d="M8.05569 9.72753C8.05569 9.72753 7.84043 9.82609 7.47329 9.80339C7.36704 9.66071 6.62291 9.59388 6.62291 9.59388C6.62291 9.59388 6.53003 9.56558 6.36576 9.63353C6.20045 9.70073 6.0441 9.69244 5.89797 9.72865C5.75185 9.76487 5.60677 9.57462 5.49477 9.53497C5.38277 9.49308 5.23426 9.39228 5.23426 9.39228L4.92066 9.36167L4.29092 9.09548L3.29047 8.09875L3.0186 8.52435L2.93475 9.05105L3.23723 9.67519L4.05162 10.4171L5.63963 10.8203L6.58088 10.543L7.76001 10.0446L8.05569 9.72746V9.72753Z" fill="#F1D789"/>
<path fill-rule="evenodd" clip-rule="evenodd" d="M2.41375 6.20492L2.61535 5.59445L2.85555 5.20021L3.62909 5.13562L3.39688 5.813L2.75019 6.96383L3.01862 7.99117L2.54292 8.22899L2.39672 8.00476L2.27897 7.49053L2.27106 6.91284L2.41375 6.20492Z" fill="#F4ECB4"/>
<path fill-rule="evenodd" clip-rule="evenodd" d="M3.28141 9.68558L3.13304 9.47831C3.13304 9.47831 3.09339 9.37975 3.11609 9.29365C3.13849 9.20644 3.13528 9.20077 3.12401 9.16792C3.11273 9.13506 3.01753 9.02179 3.02321 8.92435C3.02881 8.82579 3.01529 8.79294 3.08772 8.71484C3.16358 8.63898 3.14096 8.50756 3.14096 8.50756L3.23952 8.56872L3.26192 8.53474C3.26192 8.53474 3.29813 8.56304 3.29813 8.60724C3.30605 8.54609 3.27319 8.26288 3.34793 8.19837C3.42268 8.13386 3.55521 8.50077 3.55521 8.50077L3.47367 7.9684L3.26408 7.42251L2.89142 6.92411L2.86902 6.37471V6.32715C2.86902 6.32715 2.69796 6.58998 2.6504 6.79755C2.61642 6.94024 2.69796 7.11354 2.68101 7.31857C2.66735 7.52249 2.6504 7.50658 2.7002 7.58737C2.75 7.66816 2.87126 7.83429 2.8237 7.95436C2.78181 8.05747 2.63905 7.98497 2.63905 7.98497C2.63905 7.98497 2.61075 8.06875 2.57222 8.09936C2.55863 8.04956 2.54392 8.01783 2.51674 7.98736C2.51443 8.00663 2.50883 8.03268 2.50883 8.03268C2.50883 8.03268 2.48389 7.95451 2.45895 7.85595C2.42505 7.72461 2.38877 7.55131 2.35591 7.45842C2.34232 7.51166 2.30835 7.67361 2.30835 7.67361L2.32761 7.92285L2.4205 8.2649L2.5101 8.4889L2.59731 8.763L2.6731 8.94713L2.73425 9.08757L2.78749 9.40364L3.04456 9.67543L3.18165 9.73665L3.28126 9.68565L3.28141 9.68558Z" fill="#F3E19D"/>
<path fill-rule="evenodd" clip-rule="evenodd" d="M2.54853 5.70642C2.54853 5.70642 2.36388 6.02002 2.31071 6.33616C2.25755 6.65229 2.20991 6.98635 2.24351 7.41673C2.27749 7.85062 2.34207 8.11673 2.39419 8.30706C2.48379 8.62312 2.71585 9.06261 2.71585 9.06261L2.72377 9.04559C2.68476 8.97165 2.65363 8.89382 2.63088 8.81337C2.60027 8.69331 2.58892 8.55062 2.56062 8.48603C2.53568 8.42152 2.4938 8.36597 2.47341 8.28667C2.45415 8.21081 2.45101 8.09075 2.39188 8.0013C2.36694 7.96501 2.33632 7.86988 2.32729 7.77476C2.31594 7.632 2.33296 7.47228 2.31937 7.34095C2.29444 7.12232 2.27749 6.97396 2.30011 6.85949C2.32273 6.74503 2.44063 6.42008 2.51313 6.16181C2.5607 5.99642 2.53232 5.85709 2.61953 5.71321C2.70675 5.57052 2.76006 5.44479 2.77925 5.35757C2.80165 5.27828 2.54823 5.70642 2.54823 5.70642H2.54853Z" fill="#F2E8B0"/>
<path fill-rule="evenodd" clip-rule="evenodd" d="M3.42413 5.58069C3.42413 5.58069 3.329 5.60906 3.28368 5.65886C3.23835 5.70643 3.21909 5.74608 3.15794 5.82649C3.09679 5.90691 3.09335 5.97261 3.04347 6.07341C2.99367 6.17197 2.88376 6.32034 2.87017 6.37357C2.85658 6.42681 2.83396 6.67597 2.80566 6.7938C2.78072 6.91162 2.83396 7.05662 2.83396 7.05662L2.89847 7.04296C2.89847 7.04296 2.89847 7.12681 2.96306 7.18348C3.02757 7.23896 3.03892 6.9954 3.03892 6.9954L3.28017 6.18101L3.64372 5.93409L3.68337 5.73473L3.42398 5.58069H3.42413Z" fill="#F5EEC0"/>
<path fill-rule="evenodd" clip-rule="evenodd" d="M3.60082 5.95001C3.60082 5.95001 3.42976 5.96128 3.34598 6.02251C3.31201 6.04737 3.29842 6.06776 3.2622 6.09837C3.19538 6.15385 3.12736 6.20484 3.09458 6.27757C3.05829 6.35 3.01864 6.4599 2.99146 6.66718C2.98011 6.75439 2.98011 6.83481 2.9722 6.90507C2.96085 7.00019 2.9439 7.07605 2.95293 7.12907C2.96428 7.23778 3.07643 7.29445 3.08733 7.41788L3.31955 7.30013L3.53817 6.4381L4.0026 6.1469L3.73977 5.85242L3.60052 5.94948L3.60082 5.95001Z" fill="#E6DB9D"/>
<path fill-rule="evenodd" clip-rule="evenodd" d="M2.37575 11.7547C2.37672 11.7462 2.37769 11.7377 2.37866 11.7289C2.41256 11.4377 2.41831 11.217 2.44317 11.0788C2.47938 10.8829 2.50432 10.81 2.49865 10.7367C2.49073 10.619 2.4817 10.5329 2.49305 10.4422C2.51 10.3222 2.62782 10.1795 2.62446 10.0809C2.62215 10.0027 2.5825 9.9518 2.54852 9.90424C2.51455 9.85668 2.48737 9.81703 2.48737 9.81703C2.48737 9.81703 2.71959 9.65732 2.71735 9.01392C2.72209 9.01525 2.72665 9.01716 2.73094 9.01959L2.84532 9.34461L2.9235 9.43974L3.22366 9.99929L3.60991 10.3743L4.18074 10.7582L4.53869 11.1477L4.5749 12.1864L4.10712 12.7935L4.03051 12.9323C3.42188 12.6267 2.86377 12.2296 2.37567 11.7546L2.37575 11.7547Z" fill="#E5CB7A"/>
<path fill-rule="evenodd" clip-rule="evenodd" d="M3.80469 12.7483C3.80469 12.7483 3.8126 12.6192 3.91908 12.5354C3.9361 12.5637 3.94738 12.5909 3.94402 12.6112C3.96328 12.5773 4.09805 12.3598 4.40277 12.3032C4.70748 12.2477 4.7811 12.0257 4.7811 12.0257L5.42779 11.4378L6.16744 10.7571L7.0668 10.441L7.4871 10.3379C7.4871 10.3379 7.49501 10.3685 7.47918 10.4365C7.55728 10.4309 7.73059 10.3912 7.91068 10.3278C7.98318 10.2995 8.05121 10.2881 8.08742 10.3255C8.14066 10.3753 8.14857 10.4932 8.15193 10.5633C8.23914 10.5441 8.33994 10.4603 8.42073 10.4682C8.5499 10.4818 8.66429 10.6336 8.79571 10.6336C8.96901 10.6336 9.04711 10.5271 9.16837 10.4433C9.24087 10.3935 9.34503 10.3313 9.40394 10.2892C9.54439 10.1861 11.0305 9.73193 11.0305 9.73193L11.5515 9.76591L11.6354 10.3255L11.5906 11.7882C11.585 11.7935 11.5795 11.799 11.5739 11.8043L9.20488 13.0416L5.92104 13.545C5.18545 13.4248 4.47559 13.1807 3.82171 12.8229L3.80491 12.7482L3.80469 12.7483Z" fill="#D8C173"/>
<path fill-rule="evenodd" clip-rule="evenodd" d="M2.57489 11.9408C2.62156 11.8432 2.66352 11.7616 2.67091 11.7324C2.67674 11.7913 2.68741 11.9204 2.70892 12.0576C2.66377 12.0192 2.61909 11.9803 2.57489 11.9407V11.9408Z" fill="#F1D789"/>
<path fill-rule="evenodd" clip-rule="evenodd" d="M4.97367 13.3174L5.39837 13.1993L5.43458 13.2106C5.43458 13.2106 5.45385 13.222 5.45385 13.2604C5.50709 13.2299 5.55241 13.2355 5.58526 13.2152C5.60221 13.2514 5.61916 13.3714 5.69398 13.3861C5.77208 13.4032 5.85593 13.3522 5.9409 13.2877C6.02468 13.2208 6.1201 13.137 6.1923 13.103C6.21879 13.1517 6.24226 13.202 6.26256 13.2536C6.35769 13.1778 6.52308 12.8697 6.75865 12.8753C6.82674 12.7144 6.94049 12.5769 7.08584 12.48C7.30446 12.3316 7.44148 12.3203 7.61254 12.3339C7.68048 12.2456 7.7642 12.1707 7.85946 12.113C7.88776 12.1244 7.96593 12.1719 8.06337 12.1266C8.16193 12.0813 8.27289 11.9057 8.41901 11.8831C8.49775 11.8723 8.57782 11.8891 8.64555 11.9307C8.64555 11.9307 9.07115 11.5081 9.36481 11.3677C9.35346 11.3337 9.33084 11.2057 9.67513 10.9225C9.69439 10.9395 9.6808 10.9871 9.69439 10.9897C9.69999 10.9897 9.78399 10.9535 9.89032 10.8719C10.0217 10.7734 10.1791 10.6703 10.2743 10.642C10.4535 10.5888 10.6436 10.6975 10.6436 10.6975C10.6597 10.6861 10.6777 10.6777 10.6968 10.6725C10.742 10.6646 10.7749 10.6589 10.7998 10.6501C10.7976 10.709 10.8304 10.8098 10.7998 10.8971C10.8353 10.917 10.8729 10.933 10.9118 10.9446C10.8926 10.9865 10.8507 11.093 10.7805 11.144C10.8393 11.1723 10.8472 11.2051 10.9311 11.2336C10.8971 11.2811 10.8415 11.3628 10.8167 11.4128C10.7918 11.466 10.7022 11.6869 10.6626 11.7707C10.6207 11.8545 10.5641 12.0085 10.5369 12.0395C10.5096 12.0704 10.4111 12.2014 10.3353 12.2659C10.4025 12.241 10.6774 12.1572 10.794 12.1255C10.7593 12.1764 10.5833 12.4375 10.4141 12.6886C9.60401 13.1742 8.69973 13.4815 7.76153 13.5901C6.82333 13.6987 5.87275 13.6061 4.97314 13.3185L4.97367 13.3174Z" fill="#E0CD81"/>
<path fill-rule="evenodd" clip-rule="evenodd" d="M3.62877 5.91946C3.62877 5.91946 3.53029 5.91946 3.51102 5.93305C3.49176 5.94664 3.60958 5.97501 3.6458 5.9886C3.68201 6.00219 3.76019 6.06446 3.78057 6.11434C3.79983 6.1619 4.48849 6.43937 4.48849 6.43937L4.97554 6.41443L5.14346 6.18244L4.82404 5.90266L5.04804 5.24231L4.75131 5.28987L4.03772 5.71547L3.67977 5.85256L3.62877 5.91946Z" fill="#DFC57C"/>
<path fill-rule="evenodd" clip-rule="evenodd" d="M4.69839 6.13805C4.70543 6.14945 4.71535 6.1588 4.72714 6.16516C4.73894 6.17151 4.7522 6.17465 4.76559 6.17427C4.86639 6.17427 4.9592 6.19921 4.99773 6.25013C5.06232 6.33174 5.24129 6.59225 5.24129 6.59225L5.66943 6.74629L5.69706 6.24214L5.22927 5.91711L4.6969 6.11304V6.13798H4.69809L4.69839 6.13805Z" fill="#E5CC7C"/>
<path fill-rule="evenodd" clip-rule="evenodd" d="M4.61438 6.32497C4.61438 6.32497 4.69248 6.33064 4.79104 6.29435C4.8896 6.25806 5.05155 6.17996 5.12181 6.21058C5.2203 6.25246 5.19991 6.38388 5.30646 6.50178C5.37098 6.57428 5.4888 6.57204 5.55563 6.65021C5.62245 6.72839 5.85235 6.6921 5.85235 6.6921L5.93956 7.1625L5.5896 7.6111L5.47514 8.16834H5.0019L4.56958 7.99683L4.35663 7.48163L4.4631 6.9606L4.61438 6.32497Z" fill="#D2C281"/>
<path fill-rule="evenodd" clip-rule="evenodd" d="M5.52979 6.3476C5.54153 6.35122 5.55372 6.35313 5.566 6.35327C5.55241 6.36462 5.52404 6.38949 5.53539 6.45407C5.54674 6.51866 5.58295 6.6002 5.55241 6.65C5.57679 6.67666 5.59497 6.70838 5.60565 6.74288C5.62492 6.79844 5.63059 6.84936 5.75625 6.85735C5.73812 6.86851 5.7214 6.88182 5.70645 6.897C5.70645 6.897 5.79366 6.97286 5.83786 7.04304C5.88311 7.0411 6.00318 7.00377 6.00318 7.00377L6.02812 7.02079L6.08135 6.99839C6.08135 6.99839 6.03155 6.97913 6.06776 6.85795C6.10174 6.75147 6.13235 6.75715 6.13496 6.74923C6.13758 6.74132 6.1599 6.62917 6.1599 6.58384C6.17685 6.52501 6.19044 6.34603 6.19044 6.34603L6.15423 5.95075L5.95039 5.82725L5.78463 5.66724L5.62827 5.96172L5.52531 6.06439L5.5174 6.31923L5.52979 6.3476Z" fill="#E2C270"/>
<path fill-rule="evenodd" clip-rule="evenodd" d="M6.0202 6.01691C6.0202 6.01691 6.05642 6.11995 6.07008 6.19924C6.0749 6.18383 6.07756 6.16782 6.07799 6.15168C6.07799 6.15168 6.10629 6.30803 6.11189 6.37262C6.12324 6.3703 6.13429 6.36694 6.13683 6.37822C6.13937 6.38949 6.16521 6.51531 6.15923 6.58549C6.2064 6.50768 6.27167 6.44241 6.34948 6.39524C6.39481 6.36687 6.44804 6.33633 6.50359 6.33402C6.59081 6.33178 6.6542 6.38957 6.75843 6.38957C7.00983 6.38957 7.23757 6.20492 7.40519 6.14832C7.52862 6.10636 7.63509 6.07582 7.70983 6.0078C7.74612 5.97726 7.81071 5.90931 7.86955 5.80844C7.94772 5.67404 8.02926 5.55703 8.11087 5.54232C8.07395 5.54911 8.03638 5.55176 7.99887 5.55024C7.99887 5.55024 8.02381 5.5253 8.06607 5.49133C8.10833 5.45735 8.15895 5.41547 8.23138 5.41547C8.36055 5.41547 8.42507 5.43466 8.49757 5.43466C8.57007 5.43242 8.61196 5.41547 8.61196 5.41547C8.61196 5.41547 8.68789 5.4687 8.85888 5.4687C9.02994 5.47094 9.14433 5.48565 9.23386 5.49364C9.32338 5.50163 9.62347 5.4687 9.70956 5.47124C9.76569 5.4734 9.8208 5.48689 9.87158 5.51089L9.59405 4.70449L8.5971 3.83313L8.00357 4.25335L7.09055 5.1663L6.20709 5.49364L6.02244 5.70092V6.01691H6.0202Z" fill="#CCB360"/>
<path fill-rule="evenodd" clip-rule="evenodd" d="M8.00246 5.55463C8.00246 5.55463 8.0274 5.52976 8.06921 5.49579C8.11103 5.46182 8.16218 5.41986 8.2346 5.41986C8.3637 5.41986 8.42829 5.43912 8.50079 5.43912C8.57329 5.43688 8.61518 5.41986 8.61518 5.41986C8.61518 5.41986 8.69119 5.47302 8.8621 5.47302C9.03316 5.47526 9.14755 5.48997 9.23708 5.49788C9.3266 5.5058 9.62669 5.47302 9.71278 5.47548C9.76889 5.4776 9.82399 5.49108 9.87473 5.51513L9.74899 5.1515L9.60294 4.87404L9.18608 4.41753C9.18608 4.41753 8.68581 4.12304 8.682 4.1208C8.67976 4.11856 8.5087 4.07324 8.5087 4.07324L8.05563 4.34734L7.64451 5.41097L7.6366 5.63497L7.90271 5.76071C7.96954 5.64871 8.04323 5.55911 8.1123 5.54776C8.04995 5.55455 8.00239 5.55455 8.00239 5.55455L8.00246 5.55463Z" fill="#D5B457"/>
<path fill-rule="evenodd" clip-rule="evenodd" d="M7.99677 5.63062C7.95712 5.63286 7.92434 5.62494 7.91524 5.59664C7.88126 5.50152 7.85408 5.48793 7.82564 5.48793C7.79719 5.48793 7.75881 5.54908 7.73604 5.55468C7.71326 5.56028 7.68623 5.48449 7.68623 5.48449L7.66129 5.47314C7.66129 5.47314 7.51517 5.56827 7.41213 5.68042C7.30909 5.79257 7.14027 5.98289 7.06441 6.01679C6.98855 6.05069 6.72796 6.06211 6.63881 6.08138C6.54966 6.10064 6.4508 6.16523 6.43721 6.17994C6.42362 6.19465 6.47693 6.21048 6.48485 6.22519C6.49276 6.23878 6.39756 6.2331 6.38965 6.24759C6.38405 6.25894 6.41205 6.32345 6.42593 6.3563C6.45024 6.34422 6.4769 6.33764 6.50404 6.33704C6.59125 6.3348 6.65471 6.39259 6.75887 6.39259C7.01035 6.39259 7.23801 6.20794 7.40564 6.15127C7.52913 6.10938 7.63561 6.07877 7.71035 6.01082C7.74656 5.98028 7.81115 5.91226 7.87006 5.81146C7.91307 5.74239 7.95503 5.67781 7.997 5.63024L7.99677 5.63062Z" fill="#D2B257"/>
<path fill-rule="evenodd" clip-rule="evenodd" d="M4.39037 11.2362C4.39037 11.2362 4.36797 11.1524 4.1604 10.9361C4.10149 10.8749 4.06527 10.8241 4.02562 10.7877C3.92706 10.6947 3.86927 10.6699 3.79909 10.6166C3.64505 10.5023 3.47742 10.5023 3.34832 10.3618C3.21922 10.2214 3.06877 9.95301 2.96424 9.67876C2.8612 9.40466 2.83282 9.31745 2.83282 9.30953C2.83282 9.30162 2.8612 9.24838 2.89741 9.25629C2.93362 9.26421 2.93362 9.3344 2.94273 9.35142C2.96078 9.3792 2.98124 9.40534 3.00389 9.42952C3.05712 9.49075 3.13298 9.56392 3.17151 9.67308C3.1636 9.5802 3.13186 9.47716 3.13186 9.47716C3.13186 9.47716 3.33122 9.6029 3.50109 9.73423C3.67215 9.86565 3.74234 9.91097 3.79229 9.99475C3.84224 10.0785 3.95992 10.2995 4.01629 10.364C4.07266 10.4286 4.84509 10.6721 4.84509 10.6721L5.21253 10.9461L5.39494 11.3459L5.25217 11.5699L4.97807 11.6288L4.53291 11.4295L4.39037 11.2362V11.2362Z" fill="#D2B159"/>
<path fill-rule="evenodd" clip-rule="evenodd" d="M3.40143 9.85896C3.40143 9.85896 3.49431 10.0073 3.72085 10.1478C3.92477 10.2713 4.24755 10.3834 4.53532 10.4502C4.70063 10.4899 4.86601 10.5204 5.01438 10.5227C5.41422 10.5283 5.68944 10.414 6.03044 10.3766C6.21509 10.3574 6.44163 10.3427 6.6772 10.287C6.9796 10.2145 7.15858 10.1329 7.40214 10.0182C7.5788 9.93669 7.74083 9.87554 7.87217 9.79736C8.05682 9.68865 8.19159 9.56746 8.34795 9.53125C8.32868 9.58449 8.3083 9.67961 8.15426 9.77817C8.2358 9.77586 8.34795 9.77026 8.34795 9.77026C8.34795 9.77026 8.23923 9.83477 8.04779 9.97977C7.92996 10.0694 7.77368 10.221 7.61397 10.3218C7.51086 10.3864 7.39871 10.4338 7.32509 10.4725C7.14589 10.5711 7.07361 10.6209 6.95586 10.7413C6.99775 10.7391 7.00118 10.7413 7.00118 10.7413C7.00118 10.7413 6.85275 10.7606 6.74635 10.8172C6.72395 10.8172 6.68512 10.8092 6.61717 10.8285C6.56393 10.8455 6.49367 10.8841 6.42125 10.9044C6.31813 10.935 6.28423 10.9214 6.28423 10.9214L6.30118 10.9554C6.30118 10.9554 6.16678 10.9531 6.12198 10.9576C6.1299 10.9598 6.12766 10.9633 6.12766 10.9633C6.11979 10.9646 6.11221 10.9673 6.10526 10.9712C6.0837 10.9852 6.05999 10.9955 6.03507 11.0017C6.02148 11.004 6.01013 11.004 5.99311 11.0074C5.99878 11.021 6.04299 11.097 6.06337 11.1418C6.04642 11.1532 5.79151 11.3457 5.79151 11.3457C5.79941 11.3582 5.80588 11.3715 5.81077 11.3854C5.81869 11.4102 5.82212 11.4465 5.83004 11.4635C5.84923 11.4974 5.86058 11.5031 5.86058 11.5031C5.86058 11.5031 5.83004 11.5088 5.77672 11.5224C5.73148 11.5337 5.67592 11.5529 5.59752 11.5643C5.57347 11.5674 5.54927 11.5693 5.52502 11.5699C5.53637 11.5949 5.58617 11.69 5.49441 11.7998C5.40264 11.9097 5.37435 11.9257 5.34605 11.9958C5.3318 11.9851 5.31664 11.9756 5.30072 11.9675C5.27019 11.9539 5.22822 11.9336 5.21351 11.9063C5.20494 11.9426 5.19358 11.9782 5.17954 12.0128C5.15124 12.0887 5.10935 12.1635 5.10144 12.2201C5.07083 12.1861 5.01423 12.1193 4.93605 12.1329C4.85788 12.1465 4.7956 12.2529 4.78202 12.2835C4.78202 12.2643 4.76843 12.2496 4.76507 12.2722C4.76275 12.2971 4.71974 12.5576 4.47962 12.7683C4.47738 12.715 4.47738 12.5972 4.4717 12.5588C4.4493 12.5812 4.4219 12.6142 4.25875 12.6845C4.09904 12.7547 4.12435 12.8249 4.12435 12.8249C4.12435 12.8249 4.11076 12.7129 4.19685 12.595C4.28406 12.4772 4.3373 12.4217 4.3373 12.4126C4.33589 12.4034 4.33196 12.3948 4.32595 12.3877C4.3146 12.3763 4.29198 12.3628 4.29198 12.3537C4.30557 12.3481 4.44034 12.2835 4.43243 12.1498C4.42451 12.0298 4.37359 11.9675 4.3373 11.9233C4.3317 11.9177 4.39061 11.8758 4.38262 11.8622C4.37695 11.8543 4.30452 11.801 4.29541 11.7726C4.29755 11.7557 4.30135 11.739 4.30676 11.7228C4.31468 11.6979 4.32035 11.6808 4.31811 11.6639C4.31244 11.6356 4.28182 11.5574 4.27279 11.5495C4.2807 11.5517 4.3373 11.5495 4.3373 11.5495C4.3373 11.5495 4.29205 11.477 4.28406 11.443C4.27607 11.409 4.25912 11.3195 4.25009 11.3026C4.26935 11.3048 4.31692 11.3082 4.31692 11.3026C4.31923 11.2855 4.27503 11.2572 4.29452 11.2354C4.30811 11.2376 4.33416 11.249 4.35903 11.2807C4.34544 11.2444 4.32282 11.1742 4.27518 11.1459C4.29758 11.138 4.37374 11.1175 4.44056 11.1572C4.50739 11.1968 4.53016 11.2523 4.53016 11.2523C4.53016 11.2523 4.56981 11.2829 4.63104 11.3283C4.70123 11.3837 4.79068 11.4627 4.93344 11.5185C4.96405 11.5355 5.04215 11.5355 5.09883 11.5242C5.1235 11.5183 5.14716 11.5088 5.16901 11.4959C5.1769 11.4912 5.18526 11.4874 5.19395 11.4845C5.18177 11.4601 5.16777 11.4366 5.15206 11.4143C5.17133 11.4143 5.19395 11.4166 5.19395 11.4166C5.19395 11.4166 5.20754 11.386 5.14639 11.327C5.15998 11.3134 5.177 11.3046 5.177 11.2817C5.15774 11.2794 5.12376 11.2511 5.11585 11.2398C5.12712 11.2319 5.14415 11.2058 5.16341 11.1979C5.14639 11.1843 5.1045 11.1276 5.08524 11.122C5.10364 11.1152 5.12145 11.1069 5.13847 11.0971C5.13847 11.0971 5.04335 11.0721 5.01273 11.0518C4.98212 11.0294 4.93687 10.9906 4.90969 10.9793C4.88132 10.9679 4.83152 10.9623 4.81113 10.9396C4.83032 10.9453 4.86094 10.9396 4.88364 10.9396C4.90059 10.9396 4.90858 10.9419 4.91418 10.9419C4.91194 10.9339 4.91194 10.9169 4.95614 10.9113C4.9774 10.9081 4.99803 10.9016 5.01729 10.892C5.01729 10.892 4.97533 10.8898 4.92769 10.8445C4.88005 10.7992 4.84048 10.763 4.8133 10.7573C4.785 10.7516 4.73176 10.7765 4.69891 10.7742C4.65359 10.7686 4.63432 10.7459 4.63432 10.7459C4.63432 10.7459 4.48372 10.7595 4.14959 10.5557C3.8607 10.3789 3.73496 10.2227 3.73496 10.2227C3.70793 10.2129 3.6818 10.2007 3.65686 10.1864C3.54815 10.1298 3.39747 10.012 3.40203 9.85784L3.40143 9.85896Z" fill="#C2A44D"/>
<path fill-rule="evenodd" clip-rule="evenodd" d="M7.56856 3.0605C7.59476 3.06902 7.61805 3.08472 7.63576 3.10583C7.68899 3.16698 7.72297 3.28249 7.60178 3.40599C7.64935 3.42294 7.66898 3.42839 7.7105 3.42294C7.66861 3.47281 7.57349 3.57929 7.56781 3.67217C7.56214 3.74803 7.6097 3.77073 7.6097 3.77073C7.6097 3.77073 7.5372 3.85451 7.53384 3.99473C7.56808 3.95612 7.60555 3.9205 7.64584 3.88826C7.72969 3.82143 7.8452 3.74557 7.92337 3.69801C7.92231 3.71794 7.925 3.7379 7.93129 3.75685C7.93129 3.75685 8.07734 3.63678 8.20009 3.69009C8.25557 3.71503 8.23063 3.79313 8.23063 3.79313C8.23063 3.79313 8.30656 3.76483 8.3598 3.81807C8.41304 3.87131 8.4883 4.00862 8.5269 4.06186C8.54385 4.0868 8.58806 4.13436 8.6333 4.20798C8.69512 4.31105 8.74674 4.41991 8.78742 4.53301C8.78966 4.47409 8.80437 4.3824 8.97207 4.44012C9.13969 4.49903 9.32994 4.62253 9.48966 4.86572C9.64937 5.10891 9.68894 5.38346 9.76936 5.48799C9.85089 5.58879 9.93474 5.75642 9.94042 5.82668C9.94609 5.89694 9.91548 6.12341 10.0831 6.73619C10.1307 6.54594 10.2032 6.12341 10.2032 6.12341L10.2428 5.75074L10.2881 4.59767L9.08407 3.59736L8.14282 2.91431L7.53003 2.97322L7.56848 3.06043L7.56856 3.0605Z" fill="#CAA13E"/>
<path fill-rule="evenodd" clip-rule="evenodd" d="M9.80569 4.77652C9.80569 4.77652 9.78867 4.66452 9.50553 4.47412C9.22232 4.28611 9.00146 4.28611 8.79762 4.12639C8.64126 4.00065 8.47819 3.71177 8.37202 3.61664C8.2689 3.52264 8.25195 3.25078 8.25195 3.25078L8.59968 2.95958L9.11682 2.21209L9.55399 1.73071L9.7635 2.02191L10.0547 2.36396L10.2167 3.05037L10.2756 4.05509L9.80517 4.77659L9.80569 4.77652Z" fill="#B59544"/>
<path fill-rule="evenodd" clip-rule="evenodd" d="M10.1557 5.98077C10.1643 5.8284 10.1454 5.67573 10.1001 5.53C10.0255 5.29779 9.86232 4.88548 9.78654 4.73107C9.75592 4.56001 9.77862 4.54642 9.81148 4.52716C9.84433 4.50789 9.96783 4.43756 10.0355 4.19078C10.1031 3.94401 10.313 3.93595 10.313 3.93595L10.4421 3.84082L10.6381 4.33123L10.8091 4.77415L10.8623 5.11284L10.902 5.40165L10.8091 6.0122L10.3504 6.42675L10.1556 5.98077H10.1557Z" fill="#C89D3A"/>
<path fill-rule="evenodd" clip-rule="evenodd" d="M3.75488 12.7858V12.7733C3.76441 12.7673 3.77283 12.7597 3.77975 12.7509C3.78766 12.7395 3.79341 12.7259 3.79901 12.7226C3.81036 12.7169 3.8636 12.7002 3.8919 12.7056C3.92019 12.7109 3.99501 12.7418 4.03466 12.7395C4.11619 12.7373 4.21132 12.6749 4.362 12.7033C4.58854 12.7452 4.64177 12.8992 4.77319 12.9864C4.86279 13.0477 4.95552 13.0204 4.96911 13.0204H4.99965C5.00533 13.0204 5.04721 12.9729 5.06991 12.9752C5.11523 12.9774 5.11971 13.0148 5.14801 13.0171C5.21484 13.025 5.34401 12.9831 5.4086 13.0001C5.42775 13.0061 5.44517 13.0167 5.45937 13.0308C5.47356 13.045 5.48412 13.0624 5.49014 13.0816C5.50373 13.1235 5.49238 13.1767 5.45952 13.2073C5.38934 13.2718 5.32251 13.333 5.30892 13.3865C5.3262 13.3997 5.3428 13.4137 5.35865 13.4286C4.79821 13.2858 4.259 13.0699 3.75488 12.7865V12.7858Z" fill="#CEB052"/>
<path fill-rule="evenodd" clip-rule="evenodd" d="M9.78644 10.5227C9.78644 10.5227 9.9631 10.2871 10.0243 10.1704C10.0855 10.0501 9.83064 8.52695 9.83064 8.52695L10.3426 6.84949L10.329 6.30352C10.329 6.30352 10.3539 5.79945 10.4128 5.58082C10.4831 5.70656 10.7017 5.85836 10.7493 5.93878C10.7717 5.78466 10.8477 5.45964 10.8365 5.11304C10.8784 5.17755 10.9792 5.82663 10.9792 5.82663L11.08 6.2638L11.2114 6.72823L11.3575 7.21871L11.4447 7.5574L11.4945 7.63894L11.5365 7.78162L11.5761 7.93574L11.6905 8.29705L11.7577 8.59377L11.8109 9.13182C11.8225 9.17302 11.8309 9.21506 11.8359 9.25756C11.8381 9.31647 11.828 9.35044 11.828 9.36067C11.828 9.3709 11.8472 9.48977 11.8393 9.5793C11.828 9.6689 11.828 9.73901 11.7577 9.8033C11.6875 9.86759 11.6433 10.2518 11.6433 10.2518L11.5176 10.168C11.5176 10.168 11.5425 10.0536 11.4836 9.94942C11.4247 9.84526 11.3103 9.82368 11.2457 9.84071C11.1812 9.8543 11.0521 9.8746 11.0101 9.91089C10.9705 9.94711 10.8731 10.0593 10.7836 10.1103C10.6716 10.1775 10.4891 10.1828 10.3918 10.2054C10.2932 10.2278 10.1845 10.295 10.07 10.373C9.98028 10.4311 9.88552 10.4811 9.78689 10.5223L9.78644 10.5227Z" fill="#CCA847"/>
<path fill-rule="evenodd" clip-rule="evenodd" d="M9.78644 12.9975C9.78644 12.9975 9.7939 13.0024 9.80831 13.0103C10.613 12.6333 11.3341 12.0989 11.9288 11.4386C11.9224 11.2093 11.9139 10.9744 11.9047 10.8873C11.8855 10.7027 11.8991 10.5147 11.8934 10.4059C11.8877 10.2972 11.8266 9.8543 11.7983 9.73991C11.7676 9.62552 11.7087 9.56885 11.6997 9.56885C11.6918 9.57116 11.6441 9.78411 11.6441 9.83765C11.6441 9.89118 11.6328 10.0201 11.6328 10.0529C11.6249 10.0506 11.6215 10.0305 11.6215 10.0223C11.6102 10.0506 11.5966 10.1005 11.5909 10.1061C11.5852 10.1118 11.5988 10.0586 11.5909 10.0472C11.583 10.0359 11.5685 10.0416 11.5716 10.0133C11.573 9.99648 11.5756 9.97983 11.5796 9.96346C11.5796 9.96346 11.5456 10.0133 11.5207 10.1401C11.4958 10.2659 11.4958 10.2693 11.4867 10.2806C11.4788 10.2942 11.4335 10.3395 11.4312 10.3565C11.429 10.387 11.4732 10.4177 11.4765 10.4346C11.4788 10.463 11.4369 10.5943 11.4233 10.6586C11.4097 10.7229 11.4154 10.8489 11.4009 10.9134C11.3895 10.9724 11.3785 11.0063 11.3397 11.0312C11.368 11.0369 11.3952 11.0448 11.3952 11.0448C11.3952 11.0448 11.4349 11.2124 11.3341 11.3552C11.2978 11.405 11.2888 11.4277 11.2503 11.473C11.1743 11.5568 11.1154 11.6522 11.1098 11.7142C11.1058 11.6959 11.1032 11.6774 11.1018 11.6587C11.1018 11.6587 10.9841 11.7958 10.9342 11.874C10.8697 11.9748 10.7802 11.9691 10.755 11.994C10.7299 12.019 10.7244 12.0642 10.7326 12.1005C10.7102 12.1061 10.6681 12.1141 10.6397 12.2013C10.6261 12.2465 10.5922 12.2909 10.5389 12.3214C10.4857 12.3518 10.4211 12.361 10.3883 12.3689C10.4165 12.3768 10.4279 12.3768 10.4415 12.3859C10.4245 12.4142 10.3464 12.4584 10.2592 12.515C10.1719 12.5683 10.13 12.6464 10.1085 12.6974C10.0861 12.7449 10.053 12.7756 9.99976 12.7812C10.0222 12.7948 10.0553 12.8265 10.0723 12.8367C10.0473 12.8424 10.0051 12.8424 9.92957 12.907C9.85028 12.9727 9.8231 12.9919 9.78681 12.9976L9.78644 12.9975Z" fill="#C39D3C"/>
<path fill-rule="evenodd" clip-rule="evenodd" d="M8.21033 13.5225C8.25371 13.4921 8.30068 13.4672 8.35018 13.4484C8.52685 13.3782 8.71374 13.3646 8.78736 13.342C8.85762 13.3196 8.9131 13.2887 9.00031 13.2717C8.99799 13.2916 8.99605 13.3103 8.99396 13.3279C8.73685 13.4087 8.47502 13.4737 8.20996 13.5225H8.21033Z" fill="#D2BA6B"/>
<path fill-rule="evenodd" clip-rule="evenodd" d="M11.4688 8.87572C11.4688 8.87572 11.4326 9.07165 11.368 9.19515C11.3034 9.31864 11.2336 9.48963 11.2336 9.48963C11.234 9.4511 11.2386 9.41273 11.2472 9.37517C11.1657 9.42273 10.9674 9.53719 10.9112 9.58812C10.858 9.63568 10.7684 9.71953 10.7458 9.75918C10.799 9.6029 10.8545 9.46245 10.8636 9.39787C10.7821 9.45678 10.4014 9.77053 10.2033 9.9778L9.58593 10.4773C9.51469 10.5158 9.44133 10.5501 9.36619 10.5802C9.25979 10.6255 9.13405 10.664 9.04116 10.7003C9.0661 10.6334 9.10568 10.5745 9.16123 10.5179C9.22014 10.4624 9.3968 10.2709 9.42398 10.1819C9.44892 10.089 9.45459 10.0335 9.42174 9.95533C9.39113 9.96324 9.32094 9.96668 9.27338 9.98027C9.22581 9.99386 9.17482 10.0448 9.17482 10.0448C9.17482 10.0448 9.21103 9.8375 9.28921 9.64158C9.23029 9.64382 9.12949 9.66077 9.12949 9.66077C9.12949 9.66077 9.26994 9.42519 9.51029 9.261C9.43669 9.27667 9.36466 9.29901 9.29511 9.32775C9.15466 9.38667 9.00062 9.47388 8.88623 9.52144C8.95074 9.43184 9.40382 8.78523 9.67344 8.18259C9.94224 7.58115 10.0427 7.42711 10.1016 7.10433C10.1321 6.94462 10.124 6.7086 10.1321 6.49722C10.14 6.28763 10.1661 6.09962 10.1491 5.97388C10.2193 6.06109 10.4822 6.30689 10.4912 6.85629C10.4991 7.40561 10.2398 8.14757 9.96449 8.54734C10.0317 8.5666 10.2058 8.5893 10.3847 8.27854C10.5636 7.96778 10.5615 7.88101 10.626 7.75184C10.634 7.81643 10.6316 7.83905 10.6316 7.83905C10.6316 7.83905 10.8922 7.52306 11.0156 7.12546C11.0406 7.29652 11.1142 7.4472 10.9986 7.76095C10.8956 8.04409 10.7608 8.11323 10.7608 8.11323C10.7608 8.11323 10.8276 8.10188 10.9261 8.04296C10.9431 8.08485 10.9398 8.13256 10.9681 8.14944C10.9964 8.16631 11.0349 8.19476 11.0406 8.22194C11.0711 8.17662 11.1187 8.11883 11.1335 8.07582C11.1221 8.16542 11.1142 8.55719 11.1559 8.75655C11.2432 8.74864 11.3326 8.74296 11.3938 8.58549C11.3519 8.7396 11.3519 8.83242 11.3802 8.96383C11.4266 8.93217 11.4685 8.8755 11.4685 8.8755L11.4688 8.87572Z" fill="#C0993A"/>
<path fill-rule="evenodd" clip-rule="evenodd" d="M8.52576 2.63236C8.52576 2.63236 8.43855 2.66858 8.29019 2.66858C8.16109 2.66858 8.1973 2.61877 7.9957 2.61877C7.68539 2.61877 6.60138 2.79797 6.41105 2.79544C6.28755 2.7932 6.82784 2.84867 6.82784 2.84867L8.20865 2.86794L8.48611 2.84554L8.58923 2.63572L8.52576 2.63236Z" fill="#A88F33"/>
<path fill-rule="evenodd" clip-rule="evenodd" d="M4.94534 5.33154C4.94534 5.33154 4.76861 5.46631 4.69387 5.56943C4.61913 5.67254 4.57948 5.74041 4.49451 5.82426C4.51445 5.82503 4.53438 5.82235 4.55342 5.81635C4.55342 5.81635 4.55342 5.83875 4.53983 5.84465C4.55157 5.84334 4.56346 5.84467 4.57462 5.84854C4.58579 5.85242 4.59594 5.85874 4.60434 5.86705C4.5794 5.88064 4.51146 5.94866 4.56469 6.02908C4.60434 6.09023 4.68819 6.09583 4.68819 6.09583C4.68819 6.09583 4.66893 6.15138 4.74934 6.14571C4.92265 6.13779 5.11633 6.06185 5.20578 6.08112C5.29538 6.10352 5.3463 6.11173 5.4097 6.22164C5.4769 6.33036 5.53543 6.34738 5.53543 6.34738C5.53543 6.34738 5.57508 6.2465 5.56605 6.0959C5.59856 6.01472 5.61658 5.92847 5.61929 5.84106L5.56037 5.40725L5.3033 5.08215L4.97028 5.2668L4.94534 5.33132V5.33154Z" fill="#E3C571"/>
<path fill-rule="evenodd" clip-rule="evenodd" d="M5.26129 5.26696C5.26129 5.26696 5.28623 5.32587 5.39046 5.33147C5.37912 5.35641 5.37912 5.35985 5.38255 5.37904C5.38479 5.3983 5.38815 5.4266 5.38815 5.4266C5.39963 5.42105 5.41 5.41346 5.41876 5.4042C5.42444 5.42914 5.41309 5.46871 5.41876 5.49708C5.42226 5.51434 5.42796 5.53108 5.43571 5.54689C5.43737 5.54301 5.43926 5.53925 5.44139 5.53561C5.44363 5.52994 5.46379 5.59677 5.51956 5.64761C5.51951 5.63979 5.52144 5.63209 5.52516 5.62521C5.52602 5.63942 5.53072 5.65312 5.53875 5.66486C5.53458 5.66287 5.53077 5.6602 5.52748 5.65695C5.52748 5.65695 5.53308 5.83615 5.56369 5.92881C5.56881 5.92282 5.57336 5.91637 5.57728 5.90954C5.57728 5.90394 5.57504 5.95942 5.56937 5.99914C5.56145 6.03879 5.56713 6.09427 5.56713 6.09427C5.58755 6.07819 5.60999 6.06486 5.63388 6.05462C5.66785 6.04096 5.72348 5.99907 5.75738 5.90618C5.77704 5.85358 5.7922 5.7994 5.8027 5.74423C5.81365 5.76532 5.82121 5.78799 5.8251 5.81143C5.82741 5.83973 5.88065 5.82502 5.88065 5.82502L5.892 5.70152L5.9592 5.42175L6.02035 5.24845L6.31484 4.78977L6.84691 4.38L7.31134 4.48647L7.70319 3.9541L7.02813 3.54858L6.38928 3.61541L5.80949 4.41845L5.34514 5.14682L5.26129 5.26689V5.26696Z" fill="#D8B65B"/>
<path fill-rule="evenodd" clip-rule="evenodd" d="M8.6073 4.10493C8.6073 4.10493 8.56766 4.11285 8.45327 4.17213C8.33888 4.23142 8.25958 4.25023 8.21538 4.33744C8.17118 4.42466 8.16782 4.4938 8.16782 4.4938C8.16782 4.4938 8.24599 4.45982 8.29131 4.44847C8.33888 4.4372 8.39211 4.44056 8.38644 4.45982C8.38099 4.47303 8.37343 4.48526 8.36404 4.49604C8.36404 4.49604 8.45364 4.4938 8.45125 4.538C8.44886 4.5822 8.4343 4.63088 8.41735 4.65239C8.40033 4.67479 8.33014 4.70794 8.32223 4.734C8.30296 4.78724 8.33014 4.78948 8.31991 4.83248C8.312 4.87445 8.27466 4.95598 8.15228 5.09867C8.02655 5.24143 7.97308 5.34223 7.97308 5.34223C7.97308 5.34223 7.91193 5.22784 7.8802 5.12928C7.8578 5.14056 7.73751 5.20739 7.73751 5.20739L7.45886 4.23672L7.46446 4.17213C7.46446 4.17213 7.48939 4.14159 7.49507 4.08492C7.45318 4.07133 7.44751 4.05998 7.39195 4.00682C7.3364 3.95366 7.29115 3.889 7.19834 3.84479C7.18475 3.81986 7.16773 3.78596 7.09978 3.77229C7.03184 3.75863 6.99107 3.74743 6.99107 3.74743C6.99107 3.74743 7.02728 3.73376 7.04431 3.70547C7.00234 3.71114 6.96845 3.72473 6.87668 3.72249C6.78379 3.72018 6.77356 3.71682 6.72264 3.72473C6.67172 3.73264 6.61064 3.75534 6.58787 3.67717C6.56293 3.6579 6.50969 3.67493 6.46437 3.74168C6.41905 3.80843 6.40322 3.86174 6.31601 3.8878C6.30988 3.92624 6.29642 3.96315 6.27636 3.99652C6.25142 4.03848 6.21177 4.08037 6.15854 4.14264C6.07469 4.2412 6.08827 4.40315 5.95462 4.52665C5.81985 4.65007 5.97702 4.18453 5.97702 4.18453L6.19221 3.66933L6.805 3.07013L7.75648 3.00562L7.84936 3.49842L8.31379 3.65813L8.60715 4.10553L8.6073 4.10493Z" fill="#D3AE4D"/>
<path fill-rule="evenodd" clip-rule="evenodd" d="M8.75794 4.21356L8.3581 3.63706L8.07832 3.4218C8.07832 3.4218 7.87896 3.05489 7.86537 3.04354C7.85403 3.03562 7.66601 3.01524 7.54595 3.00732L7.56835 3.0628C7.59455 3.07131 7.61784 3.08702 7.63555 3.10812C7.68879 3.16928 7.72276 3.28479 7.60158 3.40828C7.64914 3.42523 7.66878 3.43068 7.71029 3.42523C7.6684 3.47511 7.57328 3.58159 7.5676 3.67447C7.56193 3.75033 7.60949 3.77296 7.60949 3.77296C7.60949 3.77296 7.53699 3.85681 7.53363 3.99696C7.56787 3.95835 7.60534 3.92272 7.64563 3.89048C7.72948 3.82328 7.84499 3.74772 7.92317 3.70016C7.9221 3.72012 7.92478 3.7401 7.93108 3.75907C7.93108 3.75907 8.07713 3.639 8.19988 3.69224C8.25536 3.71718 8.23042 3.79536 8.23042 3.79536C8.23042 3.79536 8.30636 3.76706 8.35959 3.82029C8.41283 3.87353 8.48869 4.01055 8.52722 4.06386C8.54417 4.0888 8.58837 4.13636 8.63362 4.20991C8.69545 4.313 8.74707 4.42188 8.78773 4.535C8.78997 4.48968 8.79908 4.42629 8.87733 4.42629L8.75839 4.21334L8.75794 4.21356Z" fill="#CAA13E"/>
<path fill-rule="evenodd" clip-rule="evenodd" d="M2.7638 5.85142C2.7638 5.85142 2.7355 5.78116 2.7638 5.64415C2.7921 5.50713 2.8363 5.44255 2.85101 5.24095C2.86572 5.03935 2.99713 4.78787 2.99713 4.78787L3.36068 4.62256L3.61784 4.69275L3.6937 5.03711L3.3686 5.21631C3.3686 5.21631 3.35165 5.29217 3.25988 5.35332C3.16812 5.41447 3.04126 5.46204 3.01072 5.52438C2.99246 5.56256 2.97914 5.60291 2.97107 5.64445C2.97107 5.64445 2.87819 5.62518 2.82271 5.68633C2.7638 5.74868 2.76604 5.80416 2.7638 5.85172V5.85142Z" fill="#F4EFC8"/>
<path fill-rule="evenodd" clip-rule="evenodd" d="M3.49776 5.75967C3.49776 5.75967 3.46714 5.77894 3.44452 5.82687C3.42212 5.79066 3.36858 5.5754 3.36634 5.38171C3.3641 5.18802 3.35253 5.14001 3.39733 5.07326C3.44213 5.00651 3.61782 4.93617 3.59288 4.81596C3.56794 4.70157 3.46371 4.65401 3.33573 4.68686C3.24613 4.70926 3.17945 4.89981 3.08657 4.99494C3.0163 5.06744 2.93253 5.05609 2.9099 5.09574C2.87929 5.14897 2.90759 5.20221 2.89856 5.23618C2.89624 5.24753 2.86794 5.30869 2.81694 5.38231C2.7139 5.53067 2.53948 5.74026 2.51678 5.92827C2.5247 5.82179 2.5191 5.81955 2.5474 5.70173L2.53037 5.67343L2.64237 5.30645L2.71488 5.00405L2.8769 4.49766L3.16228 3.98007L3.43981 3.66968L3.72862 3.68894L3.7626 4.12275L3.92798 4.93722L4.27571 5.36536L3.7184 5.74041L3.49753 5.75967H3.49776Z" fill="#EBCC73"/>
<path fill-rule="evenodd" clip-rule="evenodd" d="M3.67106 5.91355C3.67106 5.91355 3.6235 5.9249 3.60647 5.91586C3.58945 5.90683 3.57257 5.8966 3.57817 5.88525C3.58377 5.8739 3.61439 5.85471 3.61439 5.8456C3.61501 5.83737 3.61241 5.82922 3.60713 5.82288C3.60184 5.81653 3.5943 5.8125 3.58609 5.81163C3.56003 5.80827 3.55211 5.82522 3.55211 5.82522C3.55211 5.82522 3.52718 5.80603 3.50687 5.80282C3.51888 5.80135 3.53097 5.80057 3.54308 5.8005C3.51178 5.78632 3.47857 5.77679 3.44452 5.7722C3.47282 5.75526 3.52837 5.70538 3.56458 5.70538C3.6008 5.70538 3.62349 5.69978 3.61782 5.68051C3.61215 5.66125 3.58385 5.63295 3.55331 5.6216C3.56458 5.60801 3.57257 5.58763 3.54539 5.532C3.51702 5.47652 3.52837 5.43912 3.53748 5.4256C3.54539 5.40858 3.57369 5.37804 3.58728 5.35878C3.60087 5.33951 3.61222 5.31345 3.63484 5.29986C3.64619 5.29195 3.68241 5.27746 3.7187 5.26365C3.75834 5.25006 3.7912 5.23304 3.81382 5.25006C3.83876 5.26701 3.82741 5.28971 3.82741 5.28971C3.82741 5.28971 3.90559 5.26134 3.97577 5.29762C4.04603 5.33152 4.21709 5.3531 4.21709 5.3531L4.2784 5.4766L3.87288 5.82432L3.70525 5.90817L3.67128 5.91377L3.67106 5.91355Z" fill="#E5C66B"/>
<path fill-rule="evenodd" clip-rule="evenodd" d="M4.23399 5.34515C4.23399 5.34515 4.10825 5.429 4.07995 5.45954C4.0969 5.46185 4.1252 5.4732 4.11385 5.49015C4.10026 5.5071 4.01873 5.56601 3.9734 5.62156C3.92584 5.67704 3.88052 5.7473 3.86469 5.78128C3.84774 5.81181 3.71857 5.90134 3.67444 5.91261C3.76732 5.91261 3.95421 5.79822 4.0244 5.79822C4.02216 5.8322 4.04367 5.87073 4.08331 5.87409C4.12296 5.87745 4.23735 5.89902 4.39139 5.8039C4.54543 5.71101 4.4945 5.64187 4.55901 5.59662C4.68251 5.51501 4.73232 5.44251 4.80026 5.39726C4.86821 5.35202 4.90338 5.34171 4.90338 5.34171C4.90338 5.34171 4.90562 5.30774 4.92578 5.31117C4.9313 5.31181 4.93654 5.31394 4.94093 5.31733C4.94533 5.32073 4.94871 5.32526 4.95072 5.33044C4.95072 5.33044 5.06854 5.24659 5.21952 5.22396C5.21599 5.22239 5.21318 5.21957 5.2116 5.21605C5.2116 5.21605 5.22288 5.21037 5.22519 5.2047C5.22519 5.2047 5.23311 5.19335 5.23878 5.19902C5.24445 5.2047 5.25237 5.24659 5.26372 5.26361C5.28866 5.25226 5.33622 5.14579 5.33622 5.14579L5.45068 4.81845V4.51941L5.36108 4.53643L4.68908 4.82181L4.28125 5.24435L4.23369 5.34515H4.23399Z" fill="#E6BD62"/>
<path fill-rule="evenodd" clip-rule="evenodd" d="M6.16857 3.87836C6.20492 3.86954 6.23976 3.8554 6.27198 3.83639C6.25839 3.87268 6.25839 3.91233 6.19948 3.99842C6.14057 4.08451 6.13833 4.09698 6.09077 4.18643C6.0432 4.27932 6.03753 4.41297 5.99221 4.47181C6.01252 4.46194 6.03431 4.45545 6.05672 4.45262C6.05672 4.45262 6.01147 4.49227 5.99221 4.53415C5.97294 4.57604 5.93897 4.66325 5.85519 4.71656C5.77142 4.76988 5.66487 4.80378 5.55048 4.92951C5.43601 5.05294 5.31826 5.20929 5.25928 5.26551C5.28989 5.21228 5.33178 5.1058 5.34313 5.03562C5.35448 4.96543 5.34081 4.8815 5.36008 4.78869C5.37934 4.69588 5.37934 4.62898 5.47208 4.46695C5.56481 4.30493 5.72355 3.74202 5.72355 3.74202L6.0656 3.6333L6.16872 3.87798L6.16857 3.87836Z" fill="#B6933F"/>
<path fill-rule="evenodd" clip-rule="evenodd" d="M5.92163 3.67104C5.92163 3.67104 5.81859 3.8194 5.79029 3.95081C5.762 4.08223 5.78798 4.07088 5.77103 4.13546C5.76089 4.17484 5.76089 4.21615 5.77103 4.25553C5.80672 4.19804 5.85558 4.14987 5.91357 4.115C6.01101 4.05617 6.09031 4.0142 6.13757 3.9644C6.18513 3.91116 6.22478 3.82395 6.32782 3.75713C6.28593 3.75145 6.22702 3.73219 6.21582 3.73473C6.25778 3.68716 6.38345 3.61466 6.51031 3.52745C6.63604 3.43785 6.62813 3.40171 6.83204 3.31226C6.76522 3.32361 6.73348 3.30659 6.67793 3.31226C6.70033 3.2647 6.77873 3.242 6.85713 3.1639C6.93553 3.0858 6.80733 2.97021 6.80733 2.97021L6.21 3.33153L5.92119 3.67134L5.92163 3.67104Z" fill="#C49937"/>
<path fill-rule="evenodd" clip-rule="evenodd" d="M4.30078 3.40148L4.31437 3.29276L4.48543 3.01866L4.66441 2.53729V1.87917L4.65082 1.4986L4.67912 1.24936L4.70062 1.17014L4.72332 1.13953L4.86937 1.21539L5.07104 1.48949L5.09031 2.0185L4.89431 2.85328L4.33475 3.46382L4.30078 3.40148Z" fill="#DFC068"/>
<path fill-rule="evenodd" clip-rule="evenodd" d="M4.74598 1.10889C4.74598 1.10889 4.65638 1.1112 4.63727 1.48386C4.61815 1.85652 4.60889 2.05245 4.5953 2.2371C4.58171 2.42175 4.55006 2.53383 4.53415 2.64261C4.51825 2.7514 4.50921 2.89969 4.45829 2.99034C4.43589 3.03222 4.38803 3.16364 4.27588 3.2622C4.15014 3.37091 3.96228 3.44685 3.93383 3.45252C3.88395 3.4638 3.63136 3.48874 3.52832 3.54541C3.4921 3.56467 3.42976 3.5873 3.36069 3.65188C3.2236 3.77531 3.04127 3.99617 2.90985 4.26236C2.70825 4.65996 2.50665 5.78242 2.50665 5.78242L2.55198 5.70656C2.55198 5.70656 2.55765 5.60576 2.65845 5.42902C2.75701 5.25236 2.72871 5.05412 2.86572 4.71544C2.91896 4.58634 2.98579 4.41871 3.06732 4.27595C3.1965 4.04373 3.35278 3.84437 3.51025 3.73566C3.76732 3.559 4.05054 3.52047 4.05054 3.52047L4.35525 3.31887C4.35525 3.31887 4.40849 3.21583 4.47875 3.09801C4.57723 2.93269 4.70275 2.74804 4.73015 2.47962C4.77211 2.08202 4.67124 1.82151 4.67691 1.58593C4.68259 1.35036 4.68483 1.17706 4.73247 1.13509C4.7801 1.09313 4.74606 1.10904 4.74606 1.10904L4.74598 1.10889Z" fill="#A88F33"/>
<path fill-rule="evenodd" clip-rule="evenodd" d="M4.74594 2.88726C4.74594 2.88726 4.88034 2.55649 4.94186 2.26312C4.95321 2.20421 4.97584 2.14538 4.98151 2.09781C5.00981 1.82028 5.01772 1.70589 4.98151 1.55409C4.95321 1.44209 4.8445 1.34114 4.78782 1.26289C4.73235 1.18128 4.70629 1.15089 4.71764 1.13372C4.72899 1.11654 4.77312 1.08847 4.81612 1.09183C4.86184 1.09316 4.90681 1.10377 4.94829 1.12303C4.98978 1.14228 5.02692 1.16977 5.05745 1.20383C5.14466 1.30463 5.21372 1.64675 5.21372 1.64675L5.28637 2.09819L5.47102 2.66677L4.74609 2.88771L4.74594 2.88726Z" fill="#C99E3D"/>
<path fill-rule="evenodd" clip-rule="evenodd" d="M6.00886 2.5429C6.00886 2.5429 5.98392 2.55417 5.93867 2.5429C5.9406 2.56139 5.93739 2.58005 5.92939 2.59684C5.92139 2.61362 5.90892 2.62787 5.89335 2.63802C5.84578 2.61876 5.40055 2.65729 5.40055 2.65729C5.40055 2.65729 5.19327 2.621 5.12868 2.3469C5.08344 2.16449 5.16266 1.91308 5.1366 1.7477C5.09695 1.50413 5.04147 1.4565 5.0358 1.38071C5.03012 1.30492 5.02445 1.28558 5.02445 1.23802C4.99951 1.23235 4.9848 1.22443 4.95994 1.22443C4.95426 1.20203 4.96554 1.18247 4.94067 1.14282C4.95426 1.1485 5.04715 1.15985 5.15586 1.26289C5.24546 1.34674 5.24546 1.37728 5.25898 1.3943C5.27593 1.41125 5.41301 1.5287 5.47193 1.64578C5.53084 1.76285 5.64523 2.13619 5.67129 2.19734C5.6792 2.22228 5.69623 2.24722 5.73849 2.30381C5.80419 2.38542 5.90044 2.52035 6.00915 2.54275L6.00886 2.5429Z" fill="#B58634"/>
<path fill-rule="evenodd" clip-rule="evenodd" d="M5.27496 1.40002C5.34358 1.51087 5.40523 1.62588 5.45954 1.74439C5.52637 1.89499 5.56601 2.01849 5.64986 2.11929C5.60454 1.98795 5.52413 1.72968 5.47656 1.63791C5.42333 1.54085 5.31461 1.43631 5.27496 1.4001V1.40002Z" fill="#A88F33"/>
<path fill-rule="evenodd" clip-rule="evenodd" d="M4.50471 3.26216C4.50471 3.26216 4.39032 3.29046 4.17737 3.40261C4.10711 3.43882 4.04036 3.46936 3.97577 3.49773C3.808 3.57359 3.62805 3.64371 3.48529 3.68238C3.49664 3.69597 3.50224 3.70157 3.50224 3.70157C3.50224 3.70157 3.50224 3.75712 3.53285 3.78878C3.5159 3.80581 3.28929 3.95984 3.35619 4.47519C3.40144 4.45824 3.45468 4.43555 3.46259 4.43555C3.47625 4.43786 3.47961 4.47519 3.49656 4.47519C3.51351 4.47519 3.56907 4.45279 3.62798 4.37663C3.62574 4.40725 3.59176 4.71532 3.7741 4.9226C3.80807 4.88295 3.89416 4.75154 3.89416 4.75154L3.8964 4.70965C3.8964 4.70965 3.90432 4.56352 3.95196 4.42987C3.99959 4.29622 4.0924 4.19766 4.0924 4.19766L4.57707 3.50557L4.50456 3.26208L4.50471 3.26216Z" fill="#E6C367"/>
<path fill-rule="evenodd" clip-rule="evenodd" d="M4.05166 4.27843C4.02947 4.29411 4.00502 4.30632 3.97916 4.31465C3.97125 4.28635 3.9599 4.18891 4.02672 4.09378C4.1049 3.97932 4.27589 3.83095 4.32345 3.71298C4.35406 3.63705 4.34047 3.44679 4.61233 3.20323C4.88419 2.95967 4.99059 2.87589 4.99059 2.87589L5.43008 2.65503L5.97037 2.86798L5.70194 3.92003L5.49355 4.41283L4.66475 4.25655L4.05159 4.27843H4.05166Z" fill="#DCBA5A"/>
<path fill-rule="evenodd" clip-rule="evenodd" d="M4.36798 3.99271L4.4711 3.86361V3.77185C4.4711 3.77185 4.58548 3.74123 4.70891 3.61549C4.83233 3.48975 5.00339 3.24851 5.15407 3.26322C5.30475 3.28024 5.31946 3.59056 5.32513 3.67784C5.33081 3.76513 5.35007 3.96322 5.38061 4.06977C5.41458 4.17624 5.01362 4.57944 5.01362 4.57944L4.74131 4.78672L4.36798 3.99271Z" fill="#E9CE77"/>
<path fill-rule="evenodd" clip-rule="evenodd" d="M4.68707 5.06765C4.68707 5.06765 4.77092 4.93624 4.70947 4.90794C4.74569 4.82641 4.81251 4.74032 4.81251 4.74032C4.81251 4.74032 4.86008 4.62257 5.01411 4.47756C5.16815 4.33256 5.26335 4.23624 5.28829 4.13888C5.30366 4.07542 5.31203 4.01047 5.31323 3.94519C5.32988 3.9588 5.34769 3.97091 5.36646 3.9814C5.3914 3.99275 5.50915 4.09012 5.4922 4.28612C5.47525 4.48212 5.4026 4.56365 5.4026 4.56365C5.4026 4.56365 5.33242 4.63384 5.28261 4.67013C5.2293 4.70634 5.21011 4.74823 5.12059 4.75167C5.12979 4.74435 5.14013 4.7386 5.1512 4.73464C5.1512 4.73464 5.05832 4.72337 5.00844 4.76861C4.95856 4.81386 4.85253 4.95327 4.7993 4.99523C4.74606 5.0292 4.6873 5.06773 4.6873 5.06773L4.68707 5.06765Z" fill="#CDAE50"/>
<path fill-rule="evenodd" clip-rule="evenodd" d="M8.45322 2.86448C8.3194 2.81571 8.17877 2.78819 8.03643 2.78294C7.79855 2.77503 7.45082 2.78862 7.10989 2.79086C6.74291 2.7931 6.40989 2.66512 5.94778 2.64249C5.87192 2.59717 5.67898 2.39893 5.07672 2.81916C5.11293 2.81692 5.51397 2.72627 5.65322 2.90077C5.79367 3.07407 5.75402 3.36855 5.73483 3.43874C5.69855 3.59509 5.58072 3.82275 5.53323 3.98246C5.48575 4.14217 5.49695 4.2261 5.46297 4.3381C5.429 4.4501 5.35426 4.50573 5.39839 4.63482C5.4573 4.59861 5.48799 4.59861 5.5864 4.37775C5.68481 4.15688 5.66457 3.99941 5.82772 3.81252C5.98743 3.62451 6.25332 3.36736 6.35442 3.30277C6.45552 3.23818 7.25826 2.8214 8.09878 3.219C8.3015 3.19749 8.4533 2.8644 8.4533 2.8644L8.45322 2.86448Z" fill="#D2A83E"/>
<path fill-rule="evenodd" clip-rule="evenodd" d="M5.41537 2.71041C5.41453 2.7019 5.41265 2.69352 5.40977 2.68547C5.40191 2.66891 5.39158 2.65363 5.37915 2.64015C5.37915 2.64015 5.17979 2.60394 5.07899 2.61521C4.90226 2.63448 4.74255 2.8531 4.6678 2.96525C4.59306 3.0774 4.50018 3.25063 4.39938 3.34015C4.40048 3.33143 4.39847 3.3226 4.3937 3.31521C4.3937 3.31521 4.39938 3.32313 4.3881 3.33448C4.37683 3.34583 4.37675 3.35143 4.38243 3.35688L4.39945 3.37383C4.40505 3.37383 4.5614 3.30356 4.77435 3.10503C5.00089 2.89775 5.17419 2.79143 5.26484 2.75499C5.31318 2.73445 5.36371 2.71949 5.41544 2.71041H5.41537Z" fill="#C29637"/>
<path fill-rule="evenodd" clip-rule="evenodd" d="M9.28238 1.85876C9.28238 1.85876 9.24609 1.90401 9.20077 1.95389C9.09997 2.06036 8.96856 2.18035 8.85641 2.30385C8.75001 2.42168 8.62994 2.51344 8.4951 2.66748C8.36025 2.82152 8.2039 2.9925 8.16432 3.04238C8.12811 3.09226 8.09981 3.17379 8.09981 3.21568C8.08055 3.20209 8.05792 3.18738 8.05792 3.18738C8.06745 3.20517 8.07884 3.22189 8.0919 3.23726C8.12019 3.27691 8.16432 3.32686 8.18702 3.35732C8.21487 3.39611 8.23486 3.43996 8.24586 3.48642C8.25945 3.48866 8.34666 3.50569 8.45545 3.32671C8.56424 3.14774 8.70685 2.95181 8.70685 2.95181L8.93339 2.61536L9.07615 2.32999L9.25535 2.01056L9.28261 1.85876H9.28238Z" fill="#AC8132"/>
<path fill-rule="evenodd" clip-rule="evenodd" d="M9.51461 1.63C9.51461 1.63 9.37752 1.742 9.32428 1.8092C9.27104 1.8764 9.14508 2.05277 9.14508 2.05277L9.1904 2.04709L9.42038 1.84325L9.50998 1.68354L9.51453 1.6303L9.51461 1.63Z" fill="#A88F33"/>
<path fill-rule="evenodd" clip-rule="evenodd" d="M9.47264 10.6315C9.47264 10.6315 9.4704 10.5386 9.52252 10.4831C9.57576 10.4275 9.71053 10.346 9.84194 10.0402C9.97336 9.73434 9.98799 9.66527 9.98799 9.66527C9.98799 9.66527 9.75242 9.86687 9.60719 9.91443C9.64117 9.84417 9.66043 9.79437 9.67745 9.75808C9.65819 9.74113 9.57665 9.72187 9.56874 9.71283C9.61399 9.66751 9.63893 9.55648 9.73069 9.48286C9.84852 9.39326 10.0637 9.23929 10.231 9.10206C10.3982 8.96482 10.727 8.64562 10.769 8.55273C10.7939 8.58895 10.7995 8.61157 10.7995 8.61157C10.7995 8.61157 10.6342 8.82684 10.5481 8.96385C10.4722 9.08167 10.4779 9.1485 10.4779 9.1485L10.6342 9.0813C10.6342 9.0813 10.6795 9.24893 10.4745 9.50384C10.5641 9.46987 10.6003 9.49025 10.6512 9.46188C10.5673 9.51519 10.4518 9.58769 10.3431 9.78697C10.2366 9.98633 10.0916 10.2185 9.84702 10.3635C9.60913 10.5164 9.47205 10.6308 9.47205 10.6308L9.47264 10.6315Z" fill="#A67A2E"/>
<path fill-rule="evenodd" clip-rule="evenodd" d="M8.85877 2.98238C8.85877 2.98238 8.76589 3.176 8.7523 3.32667C8.75006 3.36296 8.74095 3.39126 8.74095 3.43315C8.73871 3.56792 8.74886 3.7186 8.71855 3.78878C8.7072 3.76049 8.70152 3.74122 8.69017 3.72995C8.67322 3.77751 8.64261 3.92587 8.61767 3.98135C8.6064 3.94514 8.58146 3.8194 8.58377 3.67104C8.58609 3.52267 8.58937 3.4943 8.58937 3.46376C8.58377 3.50901 8.55316 3.57024 8.54181 3.60645C8.52486 3.57591 8.5056 3.53626 8.4829 3.50341C8.46931 3.52581 8.45236 3.55889 8.43765 3.57591C8.43534 3.56232 8.42974 3.52603 8.4263 3.47511C8.42406 3.4162 8.42063 3.34034 8.42406 3.32443C8.42966 3.29389 8.4773 3.17383 8.5781 3.06392C8.69816 2.93251 8.82166 2.67998 8.85787 2.60181C8.89409 2.52363 9.04813 2.19861 9.04813 2.19861H9.16595L8.99489 2.58822C8.99489 2.58822 8.89185 2.80117 8.83861 2.87942C8.78537 2.95767 8.67322 3.18189 8.62335 3.2691C8.65956 3.22154 8.69017 3.1966 8.72646 3.15128C8.76156 3.11955 8.85892 2.98253 8.85892 2.98253L8.85877 2.98238Z" fill="#8C6228"/>
<path fill-rule="evenodd" clip-rule="evenodd" d="M9.51687 1.61523C9.49762 1.67447 9.46721 1.72947 9.42727 1.77726C9.35701 1.86111 9.20633 1.97319 9.13279 2.06264C9.06559 2.14985 8.93118 2.38774 8.99226 2.66975C9.01466 2.6086 9.05685 2.48742 9.169 2.35033C9.28115 2.21324 9.40121 2.05584 9.4602 1.93354C9.51904 1.81004 9.52695 1.71267 9.52695 1.71267L9.54935 1.68438L9.53576 1.61979L9.5165 1.61523H9.51687Z" fill="#CBA94C"/>
<path fill-rule="evenodd" clip-rule="evenodd" d="M11.8106 9.12831C11.8106 9.12831 11.7652 9.00489 11.7516 8.89274C11.7381 8.78059 11.774 8.75834 11.7324 8.62999C11.7074 8.55181 11.6622 8.56278 11.6508 8.55181C11.6395 8.54083 11.6316 8.42271 11.6338 8.35812C11.6361 8.29354 11.6316 8.20976 11.6202 8.17347C11.6033 8.15988 11.5919 8.14853 11.567 8.06476C11.5387 7.98091 11.5251 7.93902 11.5115 7.91416C11.4979 7.88929 11.4582 7.86659 11.4582 7.84165C11.4582 7.79178 11.5035 7.76579 11.5035 7.75205C11.5013 7.72376 11.4673 7.74645 11.4582 7.73847C11.4469 7.72488 11.4866 7.64334 11.4719 7.63199C11.4662 7.62639 11.4265 7.67395 11.4163 7.66036C11.405 7.6467 11.3914 7.51193 11.371 7.42248C11.3518 7.33526 11.3313 7.27187 11.3291 7.24581C11.3269 7.22088 11.1728 6.78139 11.1354 6.67491C11.1053 6.58494 11.08 6.49345 11.0596 6.40081C11.0482 6.34757 11.0403 6.23878 11.0346 6.25013C11.0289 6.26148 11.0324 6.31696 11.0233 6.31472C11.0154 6.31241 10.9871 6.1188 10.978 6.08818C10.9701 6.05757 10.9225 5.95378 10.9108 5.87867C10.8995 5.80273 10.8746 5.60449 10.8576 5.46972C10.8406 5.33494 10.8327 5.27947 10.8327 5.24572C10.8354 5.16317 10.8309 5.08054 10.8191 4.9988C10.7967 4.85603 10.7519 4.68273 10.7126 4.58201C10.6367 4.39168 10.4351 3.90463 10.399 3.78345C10.399 3.75283 10.4386 3.76986 10.4386 3.76986C10.4386 3.76986 10.5371 4.01678 10.6096 4.20703C10.6799 4.39736 10.7467 4.56498 10.7637 4.58201C10.7773 4.59896 10.8838 4.78585 10.9314 5.09168C10.9789 5.39752 10.9959 5.67953 11.0242 5.86754C11.0378 5.95714 11.0492 6.05219 11.0775 6.14732C11.108 6.25043 11.1556 6.35691 11.2179 6.51998C11.2712 6.65707 11.3108 6.77146 11.3323 6.87002C11.3573 6.99576 11.3573 7.09088 11.372 7.15323C11.3856 7.20646 11.4059 7.31286 11.4536 7.46683C11.5012 7.62079 11.5713 7.8191 11.6189 7.94253C11.7119 8.18945 11.7533 8.39561 11.7673 8.50552C11.7797 8.61878 11.8217 9.01071 11.8103 9.12846L11.8106 9.12831Z" fill="#A88F33"/>
<path fill-rule="evenodd" clip-rule="evenodd" d="M9.52253 1.60165L9.51686 1.61524C9.51686 1.61524 9.53381 1.62092 9.53045 1.64362C9.53069 1.67467 9.52879 1.70571 9.52477 1.7365C9.51917 1.77615 9.50782 1.80669 9.50558 1.83163C9.50558 1.88486 9.5135 1.94602 9.43838 2.09781C9.41598 2.1397 9.40217 2.17592 9.39082 2.20085C9.36252 2.26201 9.35685 2.27112 9.33191 2.29941C9.37156 2.27701 9.51432 2.18741 9.58675 2.20085C9.53694 2.22915 9.46101 2.2847 9.41344 2.35721C9.42479 2.35945 9.47236 2.36856 9.54784 2.35721C9.67358 2.33794 9.81403 2.29262 9.93746 2.30165C10.0723 2.30957 10.0191 2.1397 10.0191 2.1397L9.86346 1.79765L9.56898 1.59045L9.52253 1.60173V1.60165Z" fill="#BE9C44"/>
<path fill-rule="evenodd" clip-rule="evenodd" d="M10.2905 4.16381C10.2905 4.16381 10.1591 4.03239 10.1059 3.58141C10.0526 3.12833 10.064 2.46141 10.064 2.46141L9.95749 2.20089C9.95749 2.20089 9.9351 2.02759 9.87932 1.96308C9.82354 1.89857 9.71401 1.78978 9.66413 1.73654C9.61425 1.6833 9.55765 1.6108 9.52368 1.59945C9.54063 1.57115 9.61657 1.41144 9.90762 1.4092C10.1987 1.40696 10.2884 1.56891 10.3188 1.62783C10.3492 1.68674 10.4864 1.94143 10.5374 2.42676C10.5849 2.9115 10.5872 2.94778 10.5793 3.11541C10.5736 3.2083 10.543 3.42349 10.4897 3.65338C10.441 3.84826 10.3878 4.06577 10.2904 4.16425L10.2905 4.16381Z" fill="#A17C34"/>
<path fill-rule="evenodd" clip-rule="evenodd" d="M9.87841 4.55009C9.92221 4.55325 9.96596 4.54338 10.0041 4.52172C10.046 4.51948 10.1978 4.53874 10.3145 4.39038C10.3224 4.42428 10.3428 4.51612 10.2895 4.59766C10.3179 4.56928 10.3598 4.55801 10.3655 4.55009C10.3677 4.59198 10.4073 4.72108 10.2397 5.03483C10.285 4.98503 10.3382 4.98727 10.3858 4.98159C10.3881 5.0405 10.4197 5.23867 10.336 5.34522C10.2805 5.41772 10.1898 5.39502 10.1898 5.39502C10.1912 5.37919 10.1912 5.36328 10.1898 5.34746C10.1876 5.31684 10.1763 5.28631 10.1842 5.26592C10.1404 5.24592 10.1006 5.21828 10.0664 5.18431C9.96786 5.09143 9.83988 4.93291 9.83085 4.81508C9.8195 4.68367 9.93732 4.65537 9.93732 4.65537C9.92745 4.64654 9.91904 4.63621 9.91238 4.62476C9.90671 4.60557 9.90104 4.57496 9.87841 4.55009Z" fill="#8C6228"/>
<path fill-rule="evenodd" clip-rule="evenodd" d="M9.00478 3.12511C9.00478 3.12511 8.99911 3.11719 8.96857 3.1534C8.97424 3.11719 8.97992 3.08314 8.98216 3.05029C8.99661 3.01987 9.01532 2.99167 9.03771 2.96651C9.02068 3.00041 9.00933 3.03103 9.00933 3.03103C9.00933 3.03103 9.0513 2.95285 9.11245 2.90529C9.15434 2.87131 9.20757 2.85548 9.2302 2.82375C9.25514 2.78978 9.24946 2.7841 9.25514 2.77843C9.25514 2.77843 9.31069 2.74221 9.39566 2.63567C9.40693 2.62208 9.42396 2.60737 9.43531 2.59378C9.4545 2.58586 9.49982 2.56548 9.55306 2.53823C9.60861 2.50769 9.67088 2.4658 9.70941 2.44863C9.78527 2.41465 9.86576 2.41809 9.9031 2.36477C9.93139 2.35686 9.96193 2.27189 9.95633 2.19946C9.99822 2.21641 10.2134 2.35007 10.2871 2.64231C10.3403 2.84959 10.2451 3.16901 10.2055 3.32312C10.1658 3.47723 10.1602 3.59155 10.1047 3.66173C10.0344 3.75469 9.80797 3.88573 9.75242 3.95062C9.70485 4.00386 9.56217 4.13863 9.56777 4.236C9.57344 4.3085 9.66289 4.348 9.68223 4.36173C9.70157 4.37547 9.70142 4.39235 9.73771 4.38413C9.774 4.37592 9.78751 4.3592 9.8023 4.3592C9.81924 4.36144 9.81924 4.36487 9.82716 4.36487C9.8329 4.3647 9.83861 4.36392 9.84418 4.36256C9.84418 4.36256 9.83851 4.46567 9.59726 4.49696C9.58024 4.49927 9.56329 4.50487 9.54171 4.50831C9.57008 4.49472 9.58703 4.49472 9.61764 4.45283C9.58367 4.44715 9.48623 4.44148 9.46129 4.43356C9.46921 4.41997 9.49526 4.38369 9.51677 4.36674C9.53603 4.34979 9.51453 4.34434 9.49758 4.35315C9.4684 4.373 9.4404 4.39454 9.41373 4.41766C9.38543 4.4426 9.36049 4.47657 9.31517 4.50726C9.30158 4.46194 9.30382 4.37585 9.35713 4.31357C9.34347 4.31581 9.31741 4.35546 9.29255 4.34755C9.28805 4.30623 9.29073 4.26445 9.30046 4.22405C9.31405 4.17305 9.38767 4.0836 9.38767 4.0836L9.74331 3.44811L9.81917 2.96674L9.00478 3.12496V3.12511Z" fill="#92723A"/>
<path fill-rule="evenodd" clip-rule="evenodd" d="M8.9856 3.15233C8.9856 3.15233 8.96634 3.16592 9.00487 3.19198C8.99919 3.1999 8.9856 3.2282 8.96858 3.24746C8.94939 3.26986 8.92893 3.28375 8.92102 3.30301C8.90407 3.34266 8.89048 3.36984 8.89048 3.38686C8.89048 3.40389 8.8848 3.5126 8.83724 3.58279C8.82022 3.60773 8.80095 3.64961 8.78736 3.67791C8.75907 3.72772 8.73413 3.76751 8.72845 3.78991C8.71718 3.82956 8.70926 3.93828 8.70926 3.93828C8.70926 3.93828 8.7342 3.90766 8.74324 3.89639C8.72957 3.92469 8.71486 3.95523 8.69336 3.97792C8.70695 3.96657 8.7466 3.93828 8.81342 3.87936C8.90631 3.80126 9.05131 3.66985 9.22805 3.56576C9.17474 3.58503 9.12949 3.58503 9.09327 3.5907C9.12157 3.5624 9.37641 3.26336 9.51006 3.23507C9.51818 3.22478 9.52222 3.21186 9.52141 3.19878L9.40695 3.1875L9.17474 3.23731L9.14084 3.05811L8.9856 3.15211V3.15233Z" fill="#B18E3E"/>
<path fill-rule="evenodd" clip-rule="evenodd" d="M9.35489 4.17165C9.35489 4.17165 9.32428 4.20219 9.29598 4.27813C9.2742 4.25538 9.25552 4.22984 9.24043 4.20219C9.19854 4.13201 9.13403 4.04248 8.98335 4.09348C8.98111 4.04591 8.97768 4.02098 8.98335 3.987C9.00829 3.9814 9.08415 3.92025 9.16001 3.83073C9.21333 3.76957 9.26313 3.69931 9.2971 3.60986C9.3195 3.59284 9.35825 3.56454 9.4091 3.53169C9.4816 3.48188 9.56881 3.41386 9.5824 3.338C9.54843 3.35159 9.47593 3.38556 9.36714 3.37996C9.4091 3.3607 9.47361 3.34031 9.4657 3.25646C9.48272 3.24511 9.49631 3.2372 9.49631 3.2372C9.48355 3.23294 9.47011 3.23102 9.45667 3.23153C9.45435 3.22361 9.45099 3.21234 9.43173 3.21794C9.41246 3.22354 9.40933 3.22361 9.40679 3.23153C9.39887 3.23384 9.37281 3.23153 9.35355 3.24519C9.33429 3.25885 9.28105 3.30403 9.26067 3.31194C9.26858 3.29835 9.27985 3.27804 9.27985 3.27804C9.27985 3.27804 9.22438 3.28364 9.18473 3.30044C9.11223 3.32538 9.02845 3.3707 8.94348 3.41483C8.9514 3.40124 8.95483 3.39243 8.96043 3.38989C8.96603 3.38735 8.97969 3.38429 8.97969 3.38198C8.97969 3.37966 8.97409 3.35958 8.97745 3.35144C9.00286 3.29762 9.03283 3.24609 9.06705 3.1974C9.1067 3.14409 9.11462 3.06823 9.11462 3.06823L9.28792 2.98102L9.77497 2.86902L10.091 2.88828L10.0514 3.10691L9.86472 3.4886L9.70501 3.83633L9.5226 4.04935L9.35497 4.17165H9.35489Z" fill="#543E26"/>
<path fill-rule="evenodd" clip-rule="evenodd" d="M10.1444 3.22557C10.1444 3.22557 9.95405 3.46114 9.90081 3.49743C9.93478 3.42493 10.1444 2.99336 10.2202 2.87329C10.2033 2.8597 10.1806 2.8597 10.2338 2.64929C10.1886 2.75569 10.1727 2.81124 10.1353 2.83954C10.098 2.86784 10.0934 2.85881 10.0681 2.85881C10.0729 2.85019 10.0749 2.84029 10.0737 2.83051C10.0737 2.83051 9.91403 2.81124 9.80494 2.81124C9.69585 2.81124 9.47992 2.87016 9.35978 2.91772C9.26465 2.95737 9.21141 2.95737 9.17744 2.98223C9.14347 3.01053 9.1242 3.04114 9.10718 3.04906C9.09359 3.05697 9.02908 3.07736 9.01429 3.09886C9.0007 3.12126 8.97808 3.14642 8.97808 3.1521C8.97808 3.15777 8.97241 3.16576 8.98943 3.16001C8.99503 3.15777 9.03699 3.13507 9.08456 3.10677C9.14907 3.07056 9.22724 3.02867 9.28392 3.00373C9.44587 2.93915 9.49686 2.9505 9.56929 2.93691C9.64515 2.92332 9.75394 2.89159 9.82637 2.89159C9.89887 2.88935 10.036 2.89159 10.0677 2.89726C10.0541 2.90861 10.0428 2.9222 10.0484 2.96976C10.0484 2.98335 10.0371 2.99806 10.026 3.03091C9.99213 3.1238 9.92754 3.27784 9.89163 3.35601C9.84182 3.46241 9.78523 3.55194 9.75723 3.60741C9.72923 3.66289 9.66763 3.80901 9.60662 3.88719C9.54562 3.96537 9.51374 4.01293 9.49462 4.02995C9.47551 4.04698 9.33827 4.1477 9.3485 4.18399C9.37344 4.17608 9.53091 4.11679 9.64523 3.98807C9.75954 3.85934 9.78232 3.78079 9.87177 3.71053C9.96122 3.64027 10.0315 3.52252 10.0734 3.42515C10.1085 3.33451 10.1005 3.30621 10.1447 3.22579L10.1444 3.22557Z" fill="#806031"/>
<path fill-rule="evenodd" clip-rule="evenodd" d="M6.04293 4.98384C6.04293 4.98384 6.01799 5.08688 5.96132 5.13787C5.90584 5.18775 5.80728 5.23076 5.796 5.31461C5.78241 5.39839 5.89456 5.44035 5.89456 5.44035C5.89456 5.44035 5.83334 5.54115 5.83334 5.61701C5.83334 5.69519 5.8311 5.7099 5.83901 5.78464C5.83003 5.79042 5.82239 5.79805 5.81661 5.80704C5.81661 5.80704 5.82221 5.87954 5.87776 5.92479C5.93332 5.97004 5.9808 5.99729 6.0091 5.98594C6.01342 5.99517 6.01721 6.00465 6.02045 6.01431C6.02045 6.01431 6.06241 5.90784 6.09071 5.81495C6.11901 5.71983 6.14395 5.73334 6.15522 5.60536C6.1665 5.47738 6.28962 5.25764 6.28962 5.25764L6.37362 5.06985L6.23661 4.96338L6.04293 4.98376V4.98384Z" fill="#B6903C"/>
<path fill-rule="evenodd" clip-rule="evenodd" d="M6.29774 5.16846C6.26948 5.19746 6.2434 5.22851 6.21971 5.26134C6.1835 5.31122 6.1552 5.35647 6.10196 5.37581C6.04872 5.39514 6.01475 5.395 6.01811 5.44831C6.02147 5.50162 6.07135 5.52417 6.09965 5.55135C6.13026 5.57965 6.1552 5.62721 6.14161 5.68052C6.15856 5.67261 6.18917 5.6635 6.21747 5.60234C6.24577 5.54119 6.44371 5.16853 6.44371 5.16853H6.29774V5.16846Z" fill="#685026"/>
<path fill-rule="evenodd" clip-rule="evenodd" d="M7.07842 4.30876C7.07842 4.30876 7.09537 4.26351 7.07842 4.23065C7.06139 4.19668 6.95835 4.18533 6.90735 4.1468C6.85412 4.10716 6.78953 4.0796 6.73629 4.097C6.74421 4.07774 6.77594 4.03577 6.74988 4.02674C6.72494 4.01883 6.63213 4.06071 6.60719 4.07998C6.58226 4.09924 6.52558 4.12187 6.51431 4.13553C6.50303 4.14919 6.4837 4.17518 6.47235 4.16383C6.461 4.15591 6.4554 4.13553 6.43613 4.1468C6.41687 4.15808 6.32413 4.23401 6.30703 4.27822C6.28994 4.32242 6.25148 4.42098 6.13597 4.53305C6.02046 4.64513 5.97059 4.71771 6.00456 4.75959C6.03853 4.80148 6.05444 4.77094 6.06011 4.80716C6.06448 4.84271 6.06256 4.87875 6.05444 4.91363C6.04085 4.97254 6.01822 5.02802 6.04876 5.03937C6.12694 5.06431 6.20287 5.01697 6.21982 5.03145C6.2538 5.06199 6.20056 5.1719 6.28098 5.19341C6.36259 5.21581 6.443 5.17414 6.443 5.17414L6.73973 5.01443L7.02518 4.86383L7.17123 4.57494L7.0929 4.3337L7.07797 4.30876H7.07842Z" fill="#D4B968"/>
<path fill-rule="evenodd" clip-rule="evenodd" d="M6.79839 4.99858C6.79839 4.99858 6.74851 4.92272 6.80974 4.85582C6.87096 4.78892 6.9581 4.76069 6.99207 4.7188C6.98561 4.71083 6.97693 4.70493 6.96713 4.70185C6.98969 4.6615 7.02409 4.62905 7.06569 4.60889C7.04875 4.59195 7.02605 4.57836 7.00118 4.57836C6.94563 4.57836 6.91158 4.61233 6.86066 4.61233C6.81086 4.61233 6.80518 4.58739 6.80518 4.58739C6.80518 4.58739 6.88903 4.57948 6.88104 4.54207C6.87313 4.50242 6.85864 4.50242 6.85864 4.50242C6.85864 4.50242 7.0206 4.43522 7.04889 4.39938C7.07719 4.36354 7.07383 4.3212 7.07951 4.30425C7.0987 4.30425 7.21085 4.24534 7.25617 4.27028C7.30149 4.29522 7.26976 4.36317 7.26976 4.36317C7.26976 4.36317 7.40692 4.26005 7.47681 4.15895C7.53796 4.16463 7.56641 4.11707 7.61121 4.11707C7.66676 4.11707 7.75397 4.19293 7.77092 4.35488C7.78227 4.44776 7.79922 4.501 7.78227 4.66527C7.77436 4.75815 7.7766 4.95647 7.80467 5.05488C7.82386 5.13305 7.86918 5.12514 7.86918 5.12514C7.86223 5.14896 7.84844 5.17022 7.82953 5.18629C7.79892 5.21459 7.79556 5.28941 7.79892 5.31771C7.80344 5.33839 7.80912 5.35881 7.81595 5.37886C7.81595 5.37886 7.77973 5.42075 7.77062 5.44912C7.76271 5.47742 7.72537 5.49668 7.69812 5.49668C7.67087 5.49668 7.68453 5.49437 7.64832 5.49668C7.6121 5.499 7.60076 5.5046 7.57806 5.49668C7.55536 5.48877 7.53841 5.47966 7.54752 5.40708C7.55543 5.33458 7.26774 5.16583 7.26774 5.16583L6.79734 4.99821L6.79839 4.99858Z" fill="#CCA849"/>
<path fill-rule="evenodd" clip-rule="evenodd" d="M6.25812 5.71435C6.25812 5.71435 6.36116 5.85144 6.78482 5.85144C6.98642 5.85144 7.05668 5.83218 7.09842 5.82083C7.14375 5.80948 7.31361 5.74273 7.48467 5.54105C7.63871 5.35872 7.60474 5.28398 7.60474 5.28398L7.51514 5.27039L7.22394 5.31003L6.36228 5.67702L6.25775 5.71435H6.25812Z" fill="#585136"/>
<path fill-rule="evenodd" clip-rule="evenodd" d="M6.57408 5.74835C6.57408 5.74835 6.20709 5.82996 6.20709 5.59775C6.20709 5.37121 6.43363 5.13332 6.4903 5.09143C6.54921 5.04947 6.68966 5.00183 6.68966 5.00183H7.02835L7.09286 5.17289L7.06456 5.54212L6.57408 5.74827V5.74835Z" fill="#252211"/>
<path fill-rule="evenodd" clip-rule="evenodd" d="M6.91279 5.07104C6.91279 5.07104 6.8426 5.00645 6.68289 5.09344C6.52318 5.18042 6.394 5.36224 6.38609 5.52733C6.37817 5.67337 6.50615 5.78216 6.70551 5.78784C6.85388 5.79344 6.9434 5.77649 6.98872 5.76544C6.97737 5.75185 6.91846 5.67823 6.91846 5.67823L6.91286 5.07111L6.91279 5.07104Z" fill="#C3B378"/>
<path fill-rule="evenodd" clip-rule="evenodd" d="M6.84373 5.10716C6.84373 5.10716 6.82678 5.09357 6.77653 5.12075C6.73464 5.14315 6.67349 5.20236 6.62593 5.24424C6.59531 5.26918 6.57605 5.28046 6.55873 5.29972C6.48847 5.38357 6.42955 5.52066 6.4636 5.58861C6.49765 5.65655 6.60972 5.73473 6.89517 5.68149L6.84291 5.10723L6.84373 5.10716Z" fill="#E6D89C"/>
<path fill-rule="evenodd" clip-rule="evenodd" d="M6.75082 5.24769C6.75082 5.24769 6.7055 5.31795 6.7055 5.4301C6.7055 5.54449 6.77009 5.72683 7.00798 5.74042C7.19031 5.75177 7.31262 5.47766 7.44515 5.37119C7.54595 5.28965 7.6071 5.28734 7.6071 5.28734C7.6071 5.28734 7.50406 5.17534 7.22884 5.03026C6.95698 4.88414 6.65226 4.86488 6.48688 5.08917C6.56505 5.0835 6.81765 5.01891 6.81765 5.01891L6.94115 5.05856L6.75082 5.24777V5.24769Z" fill="#252211"/>
<path fill-rule="evenodd" clip-rule="evenodd" d="M7.10646 5.39607C7.09855 5.37913 7.09287 5.35643 7.12572 5.35083C7.15858 5.34523 7.17329 5.34851 7.18464 5.37323C7.19599 5.39794 7.20704 5.41855 7.19024 5.42878C7.17329 5.43781 7.12908 5.42878 7.10639 5.39593L7.10646 5.39607ZM7.05322 5.23636C7.05322 5.23636 7.04187 5.24428 7.04755 5.22845C7.04979 5.20926 7.06457 5.17521 7.10079 5.1832C7.137 5.19119 7.12916 5.23076 7.12319 5.24211C7.11721 5.25346 7.08697 5.27265 7.06427 5.26451C7.0614 5.26378 7.05873 5.26237 7.0565 5.26041C7.05427 5.25846 7.05253 5.256 7.05142 5.25324C7.05031 5.25049 7.04987 5.24751 7.05014 5.24455C7.0504 5.24159 7.05135 5.23873 7.05292 5.23621L7.05322 5.23636Z" fill="#6F674D"/>
<path fill-rule="evenodd" clip-rule="evenodd" d="M3.98718 5.30886C3.98718 5.30886 4.07678 5.37606 4.18087 5.37345C4.28391 5.37113 4.41644 5.26473 4.47759 5.19671C4.51381 5.15706 4.54479 5.11517 4.57839 5.08232C4.60677 5.05402 4.62596 5.04043 4.63955 5.02117C4.65881 4.99877 4.67919 4.95666 4.68942 4.94299C4.66448 4.96226 4.62827 4.99631 4.59086 5.01893C4.55465 5.04133 4.47647 5.08344 4.44474 5.09479C4.4142 5.10614 4.09702 5.27399 4.09702 5.27399L3.98718 5.30886Z" fill="#AC924C"/>
<path fill-rule="evenodd" clip-rule="evenodd" d="M4.12415 4.47191C4.12415 4.47191 4.17395 4.43794 4.27027 4.41636C4.36315 4.39396 4.55004 4.37671 4.55004 4.37671L4.70408 4.44391L4.76523 4.67612L4.65323 4.91745L4.51055 5.00705L4.34852 4.74653L4.12452 4.47236L4.12415 4.47191Z" fill="#9F8E57"/>
<path fill-rule="evenodd" clip-rule="evenodd" d="M3.92251 4.67919L3.8692 4.71899C3.8692 4.71899 3.88287 4.69405 3.89414 4.61819C3.90541 4.54232 3.9644 4.35767 4.05049 4.2512C4.13658 4.14472 4.13434 4.1504 4.13434 4.1504C4.12642 4.14895 4.11828 4.14921 4.11047 4.15115C4.10265 4.1531 4.09534 4.15668 4.08902 4.16167C4.10037 4.13659 4.17287 4.04699 4.24537 4.00219C4.31787 3.95739 4.34617 3.94327 4.42203 3.97979C4.49789 4.0163 4.51716 4.03526 4.57271 4.03302C4.62826 4.03078 4.67575 3.97187 4.67575 3.97187C4.67575 3.97187 4.6871 4.00809 4.64521 4.09194C4.60332 4.17579 4.43794 4.34677 4.43794 4.34677L4.09357 4.58235L3.92251 4.67941V4.67919Z" fill="#EAC970"/>
<path fill-rule="evenodd" clip-rule="evenodd" d="M4.1773 4.44355C4.1773 4.44355 4.42654 4.47753 4.5024 4.40734C4.50464 4.41526 4.51375 4.41526 4.51375 4.42093C4.51314 4.42521 4.51115 4.42917 4.50807 4.43221C4.51633 4.43089 4.52466 4.43014 4.53301 4.42997C4.54299 4.43293 4.55325 4.43484 4.56363 4.43564C4.57198 4.43546 4.58032 4.43469 4.58856 4.43333C4.58778 4.43896 4.58586 4.44437 4.58294 4.44924C4.58001 4.45412 4.57614 4.45835 4.57154 4.4617C4.58289 4.4617 4.59394 4.46394 4.59394 4.47297C4.59394 4.48201 4.59618 4.50926 4.58259 4.51494C4.57133 4.51805 4.55935 4.51723 4.54862 4.51262C4.54952 4.53407 4.55534 4.55502 4.56564 4.57385C4.58804 4.61574 4.63583 4.66345 4.70004 4.64971C4.70004 4.64971 4.73394 4.73125 4.59125 4.91246C4.57206 4.9374 4.5516 4.97137 4.52674 4.99967C4.51692 5.02109 4.50941 5.04349 4.50434 5.0665C4.50434 5.0665 4.74566 4.97361 4.81473 4.76178C4.88499 4.54883 4.89858 4.33932 4.88499 4.14339C4.88268 4.08784 4.87364 4.04827 4.86005 4.0199C4.82608 3.94963 4.73088 3.96098 4.69243 4.00063C4.63687 4.05618 4.54399 4.19432 4.41489 4.28944C4.28348 4.38457 4.27788 4.40144 4.177 4.44355H4.1773Z" fill="#D7BC6B"/>
<path fill-rule="evenodd" clip-rule="evenodd" d="M3.87836 4.7494C3.87836 4.7494 3.8308 4.7777 3.80586 4.8838C3.78092 4.99252 3.82826 5.12505 3.85566 5.16694C3.88306 5.20883 3.94526 5.32329 4.07428 5.32897C4.10622 5.3288 4.1378 5.32225 4.16717 5.3097C4.21221 5.28905 4.25446 5.26278 4.29291 5.23153C4.34846 5.18964 4.39371 5.15342 4.38803 5.14999C4.37444 5.14432 4.04598 4.87245 4.04598 4.87245L3.92249 4.73462L3.87828 4.74955L3.87836 4.7494Z" fill="#585136"/>
<path fill-rule="evenodd" clip-rule="evenodd" d="M4.18879 5.20015C4.18879 5.20015 4.25561 5.19455 4.29526 5.16961C4.33491 5.14467 4.06305 4.87512 4.06305 4.87512L4.08231 5.16632L4.18879 5.20015Z" fill="#453A25"/>
<path fill-rule="evenodd" clip-rule="evenodd" d="M3.89984 4.7289C3.89984 4.7289 3.86587 4.79349 3.86587 4.81051C3.86019 4.86599 3.87722 5.04041 3.89081 5.09588C3.9044 5.1548 3.97802 5.24425 4.07322 5.24425C4.13205 5.24425 4.21367 5.20803 4.21367 5.199C4.21367 5.18765 4.12981 5.1766 4.10719 5.13441C4.0936 5.11201 4.08793 5.05631 4.08479 5.00001C4.08255 4.9638 4.08255 4.92415 4.09614 4.91041C4.12675 4.87644 4.13235 4.779 4.13235 4.779L4.24107 4.57703H4.09808L3.92702 4.6835L3.89984 4.7289Z" fill="#84754B"/>
<path fill-rule="evenodd" clip-rule="evenodd" d="M3.85797 4.79123C3.85797 4.79123 3.96997 4.64286 4.07092 4.60881C4.17187 4.57477 4.21704 4.59523 4.21704 4.59523L4.15813 4.7459L4.07428 4.83879L4.07996 4.88635C4.07996 4.88635 4.06629 5.01209 4.15014 5.0993C4.23399 5.18651 4.29626 5.18315 4.33255 5.18315C4.36884 5.18315 4.473 5.15254 4.52624 5.0268C4.5738 4.90905 4.61345 4.758 4.51832 4.60657C4.42536 4.4559 4.26117 4.45007 4.22944 4.45007C4.1977 4.45007 3.94854 4.46254 3.85797 4.791V4.79123Z" fill="#252211"/>
<path fill-rule="evenodd" clip-rule="evenodd" d="M6.73383 5.29528C6.69194 5.27601 6.73159 5.15826 6.77348 5.12198C6.81537 5.08569 6.8686 5.04387 6.96156 5.03812C6.99546 5.03588 7.02831 5.05739 7.02271 5.08009C7.0148 5.12198 6.95589 5.18089 6.90265 5.22278C6.82903 5.28057 6.78139 5.31678 6.73383 5.29528Z" fill="#F7F7E7"/>
<path fill-rule="evenodd" clip-rule="evenodd" d="M4.46844 4.6531C4.49905 4.65086 4.5387 4.6755 4.54661 4.70865C4.55453 4.74486 4.52735 4.81736 4.46844 4.81736C4.42087 4.81736 4.39594 4.75845 4.39594 4.7415C4.39647 4.72756 4.40036 4.71396 4.40728 4.70185C4.40952 4.69842 4.4152 4.65877 4.46844 4.6531Z" fill="#F8F6DE"/>
<path fill-rule="evenodd" clip-rule="evenodd" d="M4.02671 4.67908C4.02671 4.67908 3.94854 4.71529 3.91232 4.79108C3.88645 4.84704 3.87862 4.90967 3.88992 4.97028C3.8956 4.99858 3.9239 5.06876 3.94316 5.0937C3.96243 5.11864 3.98849 5.13566 4.00775 5.13335C4.02701 5.13103 4.06659 5.08011 4.06659 5.04957C4.06659 5.01903 4.0689 4.88986 4.10623 4.8196C4.13909 4.74941 4.02694 4.67915 4.02694 4.67915L4.02671 4.67908Z" fill="#D4C38B"/>
<path fill-rule="evenodd" clip-rule="evenodd" d="M4.03808 4.67351C4.02449 4.68142 4.00187 4.69277 4.00747 4.70748C4.01314 4.72107 4.0607 4.72988 4.07773 4.76303C4.09699 4.797 4.09699 4.83322 4.09132 4.85024C4.10611 4.84321 4.11954 4.8336 4.13096 4.82187C4.1559 4.79357 4.18644 4.75512 4.2125 4.75512C4.22952 4.75512 4.24647 4.76303 4.26238 4.76303C4.28732 4.76303 4.31218 4.75512 4.31561 4.72906C4.32121 4.69508 4.26805 4.66447 4.23744 4.67015C4.24311 4.64775 4.25103 4.61467 4.22609 4.59197C4.20115 4.56927 4.12305 4.60899 4.10603 4.62034C4.089 4.63169 4.03808 4.67358 4.03808 4.67358V4.67351Z" fill="#E2D59D"/>
<path fill-rule="evenodd" clip-rule="evenodd" d="M5.83787 7.05329L6.0055 7.00378L6.05306 7.03776C6.05306 7.03776 6.08696 7.11026 6.14027 7.11929C6.12325 7.15551 6.07905 7.18649 6.08136 7.21218C6.08368 7.23786 6.1063 7.2575 6.1063 7.2575C6.1063 7.2575 5.95562 7.50666 6.25242 7.75777C6.18216 7.78607 6.09271 7.82497 6.04515 7.84737C6.07905 7.85528 6.15155 7.86977 6.18216 7.89725C6.21278 7.92472 6.21278 7.93346 6.24107 7.95048C6.26937 7.96751 6.28632 7.99013 6.28072 8.00029C6.26146 7.98894 6.19687 7.95504 6.1856 7.9867C6.17432 8.01835 5.90582 8.00596 5.90582 8.00596L5.45274 8.09317C5.45274 8.09317 5.46969 8.04785 5.42213 8.00596C5.36665 7.95616 5.29871 8.0082 5.22621 7.95272C5.13108 7.88022 5.12765 7.79637 5.09711 7.76471C5.12765 7.74545 5.18999 7.71715 5.33835 7.69751C5.33268 7.68616 5.31342 7.65219 5.32477 7.62165C5.33835 7.582 5.39495 7.55706 5.378 7.50965C5.40294 7.50398 5.41422 7.50398 5.47656 7.4258C5.53547 7.34762 5.57169 7.33067 5.61701 7.325C5.66233 7.31933 5.68951 7.325 5.77336 7.24682C5.8322 7.19135 5.81301 7.14378 5.81301 7.14378C5.81301 7.14378 5.85146 7.13131 5.83795 7.05314L5.83787 7.05329Z" fill="#CBAC5A"/>
<path fill-rule="evenodd" clip-rule="evenodd" d="M5.34291 7.07843C5.34515 7.06708 5.35426 7.06141 5.41542 7.06708C5.47657 7.07276 5.86394 7.03087 5.96929 7.02519C6.07577 7.01728 6.45067 7.02288 6.63308 7.06141C6.81549 7.09993 7.00007 7.14526 7.08952 7.16788C7.17912 7.19282 7.20734 7.20178 7.20391 7.21313C7.20167 7.22448 7.18151 7.23553 7.16993 7.23239C7.15866 7.23015 6.86186 7.13951 6.77017 7.12039C6.67848 7.10128 6.36122 7.05013 6.18777 7.05319C6.02581 7.05551 5.96123 7.05095 5.82422 7.06678C5.68713 7.08381 5.46059 7.10643 5.39264 7.0974C5.32544 7.08948 5.33933 7.08948 5.34276 7.07813L5.34291 7.07843Z" fill="#D6BC6F"/>
<path fill-rule="evenodd" clip-rule="evenodd" d="M6.25465 7.96621C6.25465 7.96621 6.48686 8.09195 6.57071 8.24599C6.63186 8.36038 6.5345 8.41705 6.5345 8.41705C6.5345 8.41705 6.66591 8.41705 6.64889 8.48955C6.64097 8.5348 6.42235 8.6571 6.27623 8.72169C6.12786 8.78627 6.13354 8.78292 6.06104 8.79419C5.99078 8.80554 5.79821 8.77179 5.75856 8.82816C5.71891 8.88454 5.73616 8.94263 5.74721 8.95166C5.75856 8.95958 5.85033 8.97093 5.85033 8.97093C5.85033 8.97093 5.83106 9.02416 5.64081 9.02984C5.45056 9.03551 5.40293 9.04903 5.39158 9.06949C5.38023 9.08868 5.42779 9.0774 5.51507 9.09189C5.60229 9.10548 5.72459 9.11429 5.72459 9.11429C5.72459 9.11429 5.68494 9.14826 5.5819 9.17544C5.46408 9.20598 5.27943 9.23435 5.22395 9.26832C5.25225 9.28759 5.29421 9.31589 5.31355 9.31813C5.26599 9.32947 5.19909 9.35441 5.18781 9.36345C5.20476 9.3748 5.22746 9.38839 5.22746 9.38839C5.22746 9.38839 5.13226 9.50278 5.07678 9.53115C5.0213 9.55952 4.70188 9.70781 4.59197 9.67951C4.31787 9.60701 4.2839 9.30685 4.21707 9.28423C4.11627 9.25025 4.06871 9.31813 3.97918 9.27056C4.01883 9.24226 4.04041 9.22531 4.0823 9.20605C4.03697 9.18365 3.80252 9.03499 3.80252 9.03499C3.778 8.98155 3.75079 8.92939 3.72098 8.87871C3.67566 8.80054 3.60898 8.6963 3.55896 8.60454C3.45024 8.40294 3.44457 8.31005 3.34601 8.19566C3.36303 8.17326 3.42187 8.1764 3.42187 8.1764L4.24768 8.44826L5.71197 8.49067L6.09277 7.94702L6.25472 7.96629L6.25465 7.96621Z" fill="#DFC677"/>
<path fill-rule="evenodd" clip-rule="evenodd" d="M4.08563 8.79527C4.09447 8.8051 4.10477 8.81351 4.11617 8.82021C4.14454 8.83947 4.18643 8.86217 4.21473 8.89607C4.22608 8.87912 4.25438 8.8485 4.30433 8.89607C4.35428 8.94363 4.41633 8.90973 4.45493 8.92101C4.49458 8.93467 4.49682 8.94027 4.49682 8.94027C4.49682 8.94027 4.51922 8.92101 4.56932 8.90062C4.59994 8.88927 4.63615 8.88136 4.6758 8.87008C4.71201 8.86217 4.75166 8.85082 4.77891 8.85082C4.80385 8.86777 4.8933 8.96282 5.25237 8.82252C5.59106 8.69111 5.66916 8.6764 5.72584 8.69671C5.73151 8.68312 5.73718 8.65706 5.8244 8.66049C5.8244 8.62428 5.75189 8.50078 5.75189 8.50078L5.35205 8.36377H5.13336L4.47756 8.48383L4.11416 8.69118L4.08586 8.79572L4.08563 8.79527Z" fill="#C4A859"/>
<path fill-rule="evenodd" clip-rule="evenodd" d="M3.867 8.56538C3.867 8.56538 3.87492 8.62654 3.96556 8.69112C4.05516 8.75563 4.08331 8.79416 4.08331 8.79416C4.08331 8.79416 4.10034 8.77176 4.11393 8.74891C4.12752 8.72398 4.13887 8.69568 4.16149 8.68776C4.20681 8.6685 4.30985 8.70471 4.33255 8.69904C4.35181 8.69344 4.34614 8.65379 4.36652 8.65379C4.41409 8.65147 4.44463 8.68433 4.46165 8.68433C4.47867 8.68433 4.52049 8.68209 4.52616 8.67305C4.53184 8.66402 4.53408 8.56994 4.59866 8.52462C4.66892 8.47481 4.75501 8.49632 4.77786 8.50767C4.77786 8.52462 4.7801 8.56658 4.82543 8.56882C4.87075 8.57106 4.87523 8.56314 4.91503 8.57673C4.95482 8.59032 5.00224 8.57449 5.02374 8.64125C5.043 8.63565 5.08833 8.62997 5.07698 8.56538C5.09938 8.54843 5.11894 8.53709 5.16658 8.47026C5.17793 8.45331 5.19712 8.43405 5.2119 8.40911C5.25155 8.40911 5.29911 8.40119 5.3625 8.45667C5.34324 8.47026 5.33189 8.47907 5.32629 8.49288C5.34287 8.5093 5.35801 8.52711 5.37154 8.54612C5.38856 8.56852 5.39991 8.596 5.42141 8.60167C5.46898 8.61526 5.54715 8.596 5.63436 8.60167C5.71821 8.60735 5.7884 8.63788 5.81901 8.65715C5.83036 8.65155 5.83036 8.64923 5.85866 8.65491C5.88696 8.66058 5.90847 8.66282 5.87793 8.62661C5.89488 8.63453 5.91414 8.65155 5.93116 8.63453C5.94819 8.6175 5.9617 8.59264 6.00927 8.58696C6.05683 8.58129 6.07385 8.5892 6.09312 8.5394C6.11805 8.47825 6.03196 8.47825 6.03196 8.47825C6.03196 8.47825 6.07161 8.44196 6.11581 8.3944C6.16905 8.34459 6.2302 8.28001 6.24491 8.20071C6.26985 8.05459 6.12716 8.0354 6.12716 8.0354L5.43508 8.24835L4.58896 8.20639L3.86745 8.56546L3.867 8.56538Z" fill="#927D49"/>
<path fill-rule="evenodd" clip-rule="evenodd" d="M3.24517 6.5662C3.24517 6.5662 3.22277 6.5945 3.20896 6.66133C3.19515 6.72816 3.20105 6.72024 3.1897 6.7678C3.17835 6.81537 3.03894 7.28883 3.09121 7.44854C3.14348 7.60825 3.23397 7.66716 3.29057 7.79626C3.30192 7.82456 3.31297 7.84159 3.31887 7.86652C3.33813 7.9503 3.32118 8.01489 3.34381 8.09874C3.35172 8.12704 3.37218 8.15989 3.40272 8.19386C3.46992 8.26405 3.57946 8.33088 3.62672 8.37844C3.69347 8.4487 3.78867 8.59146 3.90986 8.60498C3.97444 8.61289 4.06621 8.58571 4.14207 8.54047C4.20927 8.4985 4.25078 8.43967 4.32127 8.40607C4.37107 8.38113 4.42431 8.37209 4.47187 8.36074C4.57043 8.34148 4.65996 8.33834 4.71319 8.34939C4.79473 8.36642 4.9873 8.42533 5.09399 8.42533C5.17737 8.42399 5.26028 8.41258 5.34092 8.39136C5.50287 8.34379 5.69879 8.26218 5.82797 8.22597C5.90383 8.20357 5.96498 8.19767 6.02733 8.18408C6.1338 8.15914 6.22325 8.12517 6.27425 8.06058C6.24028 8.02094 6.19839 7.95978 5.97178 7.96202C5.7147 7.9677 5.4179 8.11039 5.27178 8.13308C5.12565 8.15578 5.06226 8.17497 4.89911 8.11606C4.73918 8.05655 4.73388 8.0172 4.73388 8.0172C4.73388 8.0172 4.56595 7.89975 4.49569 7.60034C4.42543 7.30092 4.49569 7.08275 4.6781 6.8754C4.72566 6.82216 4.71431 6.7746 4.71431 6.7746C4.71431 6.7746 4.83438 6.61265 4.80152 6.461C4.76531 6.31032 4.5331 6.34093 4.5331 6.34093L3.24525 6.5662H3.24517Z" fill="#6E6342"/>
<path fill-rule="evenodd" clip-rule="evenodd" d="M3.43885 7.07031C3.42887 7.08909 3.42417 7.11023 3.42527 7.13146C3.42751 7.162 3.43661 7.20165 3.52831 7.29118C3.60648 7.36928 3.58946 7.45649 3.58946 7.45649C3.58946 7.45649 3.62881 7.4644 3.73558 7.41445C3.81943 7.3748 3.84758 7.44506 3.84758 7.44506C3.87199 7.43226 3.89844 7.42383 3.92576 7.42013C3.9505 7.41785 3.97445 7.4102 3.99594 7.39773C3.99594 7.39773 4.0945 7.49853 4.18059 7.54609C4.25877 7.58805 4.30409 7.61635 4.34262 7.58805C4.37883 7.56311 4.37883 7.51212 4.37652 7.48949C4.36753 7.46861 4.35616 7.44884 4.34262 7.43058C4.31768 7.39437 4.27803 7.3524 4.27542 7.31858C4.26975 7.24048 4.33433 7.14752 4.32067 7.12489C4.307 7.10227 4.25616 7.0966 4.13042 7.14192C4.0002 7.18493 3.43833 7.07054 3.43833 7.07054L3.43885 7.07031Z" fill="#39331F"/>
<path fill-rule="evenodd" clip-rule="evenodd" d="M3.7356 7.57662C3.7356 7.57662 3.67109 7.51547 3.69371 7.21867C3.7211 7.21827 3.74845 7.22092 3.77525 7.22658C3.77525 7.22658 3.81042 7.45655 3.7356 7.57662Z" fill="#292311"/>
<path fill-rule="evenodd" clip-rule="evenodd" d="M3.2758 6.33959C3.28481 6.33293 3.29316 6.32543 3.30074 6.31719C3.27834 6.35908 3.17493 6.5267 3.25878 6.79065C3.34263 7.0534 3.55327 7.24933 3.81266 7.25844C4.07205 7.26755 4.20839 7.14061 4.3643 6.95036C4.42545 6.8745 4.49571 6.7793 4.55798 6.71479C4.65087 6.61391 4.72337 6.58562 4.72337 6.48825C4.72337 6.28889 4.51945 6.19936 4.21929 6.10991C3.91913 6.02046 3.64839 6.03151 3.50794 6.09274C3.37093 6.15949 3.31202 6.22975 3.27573 6.33966L3.2758 6.33959Z" fill="#252211"/>
<path fill-rule="evenodd" clip-rule="evenodd" d="M4.23966 7.66599L4.26206 7.65464C4.26206 7.65464 4.26766 7.56504 4.30395 7.56743C4.34017 7.5731 4.35719 7.62074 4.35376 7.63769C4.35152 7.65464 4.34248 7.68301 4.30619 7.67958C4.25863 7.6807 4.23944 7.66599 4.23944 7.66599H4.23966Z" fill="#3F3824"/>
<path fill-rule="evenodd" clip-rule="evenodd" d="M4.13885 7.2855C4.13885 7.2855 4.16125 7.27758 4.18866 7.30476C4.21106 7.30476 4.30872 7.29341 4.33933 7.31267C4.36995 7.33194 4.37898 7.34889 4.37898 7.34889C4.37898 7.34889 4.26459 7.37383 4.20225 7.34889C4.13885 7.32738 4.13885 7.2855 4.13885 7.2855Z" fill="#2D2815"/>
<path fill-rule="evenodd" clip-rule="evenodd" d="M4.64291 7.30236C4.64291 7.29668 4.58176 7.25479 4.51717 7.24113C4.50582 7.23889 4.50351 7.2468 4.49477 7.2468C4.4891 7.24456 4.48686 7.22754 4.48686 7.22754L4.45012 7.24688C4.45012 7.24688 4.44445 7.25479 4.46371 7.26928C4.48066 7.28287 4.50903 7.29422 4.51695 7.31684C4.52486 7.33946 4.52486 7.34738 4.5283 7.35081C4.53054 7.35305 4.57018 7.35081 4.58945 7.33946C4.60871 7.32811 4.645 7.3096 4.64269 7.30213L4.64291 7.30236Z" fill="#82764F"/>
<path fill-rule="evenodd" clip-rule="evenodd" d="M4.07092 7.5324C4.07092 7.5324 4.0822 7.4543 4.15813 7.45086C4.23623 7.44519 4.25102 7.52105 4.25102 7.52105L4.2057 7.56637C4.2057 7.56525 4.17172 7.51769 4.0713 7.5324H4.07092Z" fill="#2D2816"/>
<path fill-rule="evenodd" clip-rule="evenodd" d="M4.5636 7.19591C4.5636 7.19591 4.52164 7.24123 4.42883 7.25482C4.42092 7.24347 4.40389 7.22085 4.42883 7.18463C4.45377 7.14842 4.48207 7.13707 4.51037 7.14835C4.52285 7.15037 4.5345 7.15592 4.54393 7.16435C4.55337 7.17278 4.56019 7.18373 4.5636 7.19591Z" fill="#574F35"/>
<path fill-rule="evenodd" clip-rule="evenodd" d="M4.73464 7.25151C4.73696 7.24016 4.72904 7.23792 4.73464 7.23225C4.74024 7.22657 4.77093 7.2153 4.77661 7.2209C4.77885 7.22321 4.77661 7.23225 4.77661 7.2433C4.77661 7.25435 4.77661 7.2657 4.77093 7.27384C4.76302 7.28519 4.74039 7.29086 4.72904 7.2875C4.71769 7.28414 4.71545 7.26824 4.71545 7.2651C4.72105 7.26286 4.73464 7.25719 4.73464 7.25151ZM4.92803 7.12921C4.92803 7.12353 4.94729 7.11218 4.95864 7.11218C4.97559 7.11218 4.97559 7.12577 4.97791 7.12921C4.98351 7.13145 4.98351 7.12689 4.98918 7.13712C4.99486 7.14735 5.00285 7.16542 4.9971 7.17677C4.99135 7.18812 4.9688 7.19596 4.9632 7.19372C4.95528 7.18804 4.93034 7.13712 4.92803 7.12921Z" fill="#82764F"/>
<path fill-rule="evenodd" clip-rule="evenodd" d="M4.5387 7.27754C4.5387 7.27754 4.56364 7.28314 4.59761 7.31151C4.58626 7.31943 4.56924 7.32846 4.56924 7.32846C4.56924 7.32846 4.56699 7.3024 4.5387 7.27747V7.27754Z" fill="#6E6342"/>
<path fill-rule="evenodd" clip-rule="evenodd" d="M4.4832 7.02827C4.47752 7.02267 4.50014 7.00908 4.51373 7.01132C4.52732 7.01356 4.533 7.02267 4.54771 7.02491C4.56242 7.02715 4.56473 7.01923 4.57011 7.01356C4.57548 7.00788 4.59505 7.01132 4.59841 7.01356C4.6005 7.01605 4.6024 7.01869 4.60408 7.02147C4.60432 7.01716 4.60544 7.01295 4.60738 7.0091C4.60932 7.00524 4.61204 7.00183 4.61536 6.99907C4.6197 6.99588 4.62471 6.99371 4.63001 6.99273C4.63531 6.99175 4.64077 6.99198 4.64597 6.9934C4.64821 7.00131 4.65956 7.02961 4.65732 7.03529C4.65508 7.04096 4.6211 7.04895 4.61536 7.0432C4.62103 7.05687 4.64597 7.08516 4.64933 7.09076C4.65269 7.09636 4.62439 7.11003 4.61312 7.10779C4.59729 7.10667 4.49985 7.05 4.4829 7.02849L4.4832 7.02827ZM4.63156 6.84026C4.62946 6.83455 4.62545 6.82975 4.62021 6.82667C4.61229 6.82443 4.58624 6.82667 4.58624 6.84026C4.58624 6.85385 4.60864 6.92986 4.6338 6.96943C4.66217 7.00908 4.68136 7.04186 4.70062 7.05097C4.70667 7.05372 4.71354 7.05408 4.71984 7.05198C4.72615 7.04987 4.73142 7.04545 4.7346 7.03962C4.73684 7.03394 4.74251 6.99205 4.74027 6.89349C4.73803 6.79493 4.7346 6.69981 4.72892 6.69413C4.72325 6.68846 4.70062 6.68853 4.69271 6.69981C4.6848 6.71108 4.6338 6.82331 4.63148 6.84026H4.63156Z" fill="#585136"/>
<path fill-rule="evenodd" clip-rule="evenodd" d="M4.53076 7.42023C4.53076 7.42023 4.49111 7.39529 4.45258 7.41232C4.41637 7.42934 4.41861 7.49617 4.41861 7.49617C4.42675 7.49936 4.43556 7.50051 4.44425 7.49952C4.45294 7.49853 4.46126 7.49543 4.46848 7.4905C4.49342 7.47355 4.52508 7.44525 4.53076 7.42031V7.42023Z" fill="#574F35"/>
<path fill-rule="evenodd" clip-rule="evenodd" d="M4.60553 7.5098C4.60329 7.4874 4.58313 7.4874 4.58313 7.47582C4.58452 7.47029 4.58772 7.46539 4.59223 7.46189C4.59674 7.4584 4.60229 7.45652 4.60799 7.45656C4.61934 7.45656 4.63039 7.47015 4.64428 7.47896C4.65787 7.48687 4.67826 7.50136 4.6805 7.51861C4.68274 7.53586 4.6581 7.58312 4.63069 7.58312C4.60329 7.58312 4.61143 7.53212 4.60575 7.5095L4.60553 7.5098ZM4.82415 7.47918C4.82415 7.47918 4.77883 7.49277 4.78219 7.47918C4.78555 7.46559 4.79586 7.46223 4.81056 7.46223C4.81804 7.45441 4.82809 7.44956 4.83886 7.44857C4.84503 7.44827 4.85108 7.45029 4.85581 7.45425C4.85581 7.45425 4.88643 7.44066 4.89546 7.44857C4.9045 7.45649 4.89778 7.45649 4.90338 7.46559C4.91051 7.4757 4.91518 7.48734 4.91704 7.49957C4.91704 7.5086 4.88307 7.52787 4.85581 7.52451C4.82415 7.51771 4.82975 7.48486 4.82415 7.47918ZM5.08803 7.42819C5.08803 7.42819 5.10162 7.4361 5.09034 7.44521C5.08243 7.45313 5.04278 7.46761 5.00873 7.47015C4.97476 7.47015 4.94422 7.47575 4.94422 7.46447C4.94422 7.4532 4.97252 7.4305 4.98947 7.42483C4.99286 7.42057 4.99718 7.41714 5.0021 7.41478C5.00701 7.41243 5.01239 7.41122 5.01784 7.41124C5.03143 7.41124 5.08459 7.40556 5.09938 7.40332C5.11296 7.40101 5.12431 7.40892 5.11632 7.42027C5.11296 7.42819 5.08803 7.42819 5.08803 7.42819ZM5.1662 7.07845C5.1662 7.07845 5.14918 7.11466 5.12999 7.11466C5.11072 7.11242 5.11072 7.10675 5.11072 7.10107C5.11072 7.09316 5.12999 7.07277 5.12767 7.0671C5.12207 7.0671 5.10841 7.0671 5.11072 7.05351C5.11072 7.04216 5.12999 7.02857 5.14694 7.03111C5.15975 7.02059 5.17569 7.01462 5.19226 7.01416C5.21152 7.01416 5.22847 7.01976 5.22847 7.03111C5.22847 7.04246 5.20607 7.06732 5.19786 7.07307C5.18883 7.08211 5.17748 7.08801 5.1662 7.07867V7.07845ZM4.90793 7.74783C4.90793 7.74783 4.88553 7.75015 4.88553 7.76142C4.88553 7.7671 4.89113 7.7671 4.89912 7.76374C4.90372 7.76348 4.90828 7.7627 4.91271 7.76142C4.91495 7.76374 4.91495 7.77501 4.93197 7.77501C4.94595 7.77313 4.95942 7.76851 4.97162 7.76142C4.98521 7.75582 4.99656 7.75007 4.99656 7.73902C4.99088 7.71976 4.97954 7.71065 4.96259 7.71065C4.9539 7.7101 4.94524 7.71207 4.93765 7.71633C4.93765 7.71633 4.93197 7.70498 4.91271 7.71633C4.89344 7.72768 4.89568 7.72767 4.90136 7.73335C4.91151 7.74238 4.90815 7.74828 4.90815 7.74828L4.90793 7.74783ZM4.77995 7.86566C4.77995 7.85998 4.80825 7.84863 4.81616 7.85207C4.82408 7.85431 4.8467 7.89732 4.8467 7.90187C4.8467 7.90755 4.8184 7.92114 4.80706 7.92114C4.79571 7.92114 4.77652 7.90187 4.77652 7.89874C4.77652 7.8965 4.79011 7.89314 4.79011 7.89082C4.79347 7.88522 4.77995 7.87156 4.77995 7.86588V7.86566ZM4.69035 7.70027C4.69603 7.69803 4.69603 7.69236 4.70394 7.68668C4.70642 7.68503 4.70924 7.68398 4.71219 7.68359C4.71514 7.6832 4.71814 7.68349 4.72096 7.68444C4.72296 7.68088 4.72573 7.67781 4.72906 7.67544C4.73239 7.67308 4.73621 7.67149 4.74023 7.67078C4.75382 7.66854 4.76517 7.67078 4.76263 7.67645C4.76263 7.69348 4.77398 7.70475 4.77398 7.71834C4.77398 7.73193 4.76606 7.74895 4.73776 7.7603C4.70947 7.76822 4.67094 7.76822 4.66526 7.76598C4.65959 7.76374 4.65391 7.74104 4.65959 7.72969C4.66526 7.71834 4.68109 7.70595 4.6902 7.70027H4.69035Z" fill="#82764F"/>
<path fill-rule="evenodd" clip-rule="evenodd" d="M4.72638 7.70789C4.72638 7.70789 4.70711 7.71923 4.70711 7.72491C4.7054 7.73039 4.70465 7.73612 4.70487 7.74186C4.70487 7.74522 4.72981 7.73962 4.73317 7.73618C4.73429 7.73394 4.72638 7.71378 4.72638 7.70789Z" fill="#6E6342"/>
<path fill-rule="evenodd" clip-rule="evenodd" d="M4.55793 7.65473C4.56921 7.65704 4.58847 7.65473 4.60318 7.6604C4.61453 7.66607 4.62244 7.67742 4.61109 7.69101C4.59974 7.7046 4.58869 7.72499 4.56353 7.72155C4.53523 7.71931 4.50805 7.7046 4.50805 7.69325C4.50758 7.68607 4.50853 7.67887 4.51087 7.67207C4.5132 7.66526 4.51686 7.65898 4.52164 7.65361C4.53299 7.64457 4.53859 7.65025 4.55786 7.65473H4.55793Z" fill="#585136"/>
<path fill-rule="evenodd" clip-rule="evenodd" d="M4.54435 7.66602C4.54435 7.66602 4.50814 7.69431 4.49903 7.70798C4.48768 7.72157 4.4322 7.79175 4.41526 7.80646C4.42088 7.79653 4.4273 7.78707 4.43444 7.77817C4.41204 7.79249 4.39525 7.81408 4.38688 7.83932C4.37329 7.88128 4.46282 7.9039 4.52166 7.92093C4.58049 7.93795 4.60327 7.94333 4.60327 7.94333C4.5816 7.91077 4.56301 7.87628 4.54771 7.84029C4.52531 7.78705 4.51374 7.78138 4.52845 7.75644C4.5398 7.7315 4.55682 7.71455 4.55682 7.69529C4.55003 7.67737 4.54435 7.66602 4.54435 7.66602Z" fill="#574F35"/>
<path fill-rule="evenodd" clip-rule="evenodd" d="M3.25308 7.75556C3.26132 7.75707 3.26977 7.75707 3.27802 7.75556C3.29497 7.75324 3.4717 7.68836 3.65635 7.70001C3.79459 7.70836 3.93159 7.73088 4.06523 7.76721C4.29744 7.82836 4.58625 7.94954 4.77314 8.01868C4.82295 8.03787 4.8717 8.07192 4.90754 8.08544C5.05031 8.14099 5.05591 8.14099 5.13976 8.1557C5.23832 8.16929 5.33912 8.13643 5.44447 8.11381C5.57357 8.08544 5.79443 8.07185 5.98812 8.04355C6.05075 8.03487 6.11252 8.02085 6.17277 8.00166C6.17277 8.00166 6.01873 8.1557 5.64943 8.21117C5.50016 8.23384 5.34847 8.23575 5.19867 8.21685C5.08084 8.2055 5.00274 8.18848 4.94383 8.17153C4.877 8.15226 4.73992 8.10127 4.57117 8.05953C4.45335 8.02891 4.32193 8.00629 4.17133 7.97799C3.79979 7.90997 3.39659 7.83187 3.25293 7.75601L3.25308 7.75556Z" fill="#252211"/>
<path fill-rule="evenodd" clip-rule="evenodd" d="M2.83624 7.05554C2.74664 7.1314 2.65159 7.2039 2.55878 7.27409L2.279 7.48906C2.18388 7.55924 2.09099 7.63174 1.99579 7.70201C1.90059 7.77227 1.80554 7.83902 1.70459 7.90361C1.79419 7.82774 1.88924 7.75748 1.98437 7.68842C2.07949 7.61935 2.17813 7.55163 2.26989 7.48159L2.54967 7.26633C2.64591 7.19614 2.7388 7.12364 2.83624 7.05569V7.05554ZM2.34127 7.84843C2.34127 7.84843 2.44207 7.76458 2.56781 7.64683C2.72409 7.50078 2.91553 7.31381 2.97669 7.27992L2.3412 7.8485L2.34127 7.84843Z" fill="#CFB66C"/>
<path fill-rule="evenodd" clip-rule="evenodd" d="M2.34125 7.84837C2.39112 7.79856 2.44436 7.74988 2.4976 7.70225L2.57914 7.63206C2.60407 7.60966 2.63245 7.5845 2.65731 7.55956C2.70711 7.50975 2.75587 7.45644 2.80567 7.40552C2.83036 7.37991 2.85646 7.35571 2.88385 7.33302C2.89754 7.3209 2.91275 7.31061 2.9291 7.3024C2.94276 7.29449 2.95747 7.28 2.97666 7.27747C2.96539 7.29449 2.9518 7.3024 2.94045 7.31711C2.92686 7.32846 2.91551 7.34205 2.90423 7.35333C2.8793 7.37827 2.851 7.40089 2.82606 7.42359C2.77282 7.46891 2.71734 7.51319 2.66411 7.5606C2.61087 7.60802 2.56107 7.65916 2.50775 7.70672C2.45004 7.75548 2.3968 7.80304 2.34125 7.84859V7.84837ZM3.01862 7.39529C3.01862 7.39529 2.6494 7.75668 2.57346 7.81551L3.01862 7.39529Z" fill="#CFB66C"/>
<path fill-rule="evenodd" clip-rule="evenodd" d="M3.01865 7.39526C2.98543 7.43371 2.94982 7.47002 2.91202 7.50398L2.80002 7.61045C2.76381 7.64667 2.72976 7.68295 2.69131 7.71917C2.65166 7.75314 2.61545 7.78637 2.57349 7.81773L2.6822 7.71125C2.71849 7.67504 2.75814 7.6445 2.79666 7.60821L2.90538 7.50174C2.94271 7.46441 2.979 7.42812 3.01865 7.39526ZM3.0356 7.59119C3.00156 7.68618 2.96146 7.77888 2.91553 7.86872C2.82041 8.05905 2.67772 8.29686 2.61537 8.41812L3.0356 7.59119Z" fill="#CFB66C"/>
<path fill-rule="evenodd" clip-rule="evenodd" d="M3.03556 7.59131C3.03556 7.6332 3.02421 7.66948 3.01062 7.7057C2.99737 7.74194 2.98227 7.77748 2.96537 7.81217C2.94835 7.84615 2.92908 7.88243 2.90982 7.91529C2.89056 7.94814 2.86793 7.98204 2.85091 8.01609L2.73652 8.21769C2.69687 8.28489 2.65834 8.35246 2.61646 8.41705C2.64475 8.34455 2.68328 8.2766 2.71957 8.20977C2.75922 8.14257 2.79543 8.07537 2.83157 8.00586C2.84921 7.97122 2.86509 7.93571 2.87913 7.89946C2.89608 7.86317 2.91303 7.8292 2.92669 7.79634C2.94364 7.76013 2.95723 7.72608 2.97426 7.6933C2.99345 7.65814 3.00935 7.62416 3.03541 7.59131H3.03556Z" fill="#CFB66C"/>
<path fill-rule="evenodd" clip-rule="evenodd" d="M3.43887 8.52002C3.43887 8.52002 3.32687 8.66838 3.33807 8.85639C3.36861 8.75791 3.40713 8.60723 3.43887 8.52002ZM3.54534 8.66876C3.54534 8.66876 3.50569 9.07196 3.47284 9.2702C3.51928 9.04104 3.52832 9.06031 3.54534 8.66876ZM4.28723 9.29401C4.28723 9.29401 4.1196 9.78681 4.11617 9.92375C4.15246 9.78293 4.22264 9.49524 4.28723 9.29364V9.29401Z" fill="#DEC270"/>
<path fill-rule="evenodd" clip-rule="evenodd" d="M4.67914 8.48962C4.67914 8.48962 4.951 8.93815 5.15491 9.32096C5.09974 9.12832 4.9728 8.775 4.67914 8.48962Z" fill="#CBAF59"/>
<path fill-rule="evenodd" clip-rule="evenodd" d="M5.40973 9.1499C5.55899 9.41375 5.6936 9.68562 5.81293 9.96429C5.79031 9.77173 5.72908 9.44215 5.40973 9.1499Z" fill="#E3C677"/>
<path fill-rule="evenodd" clip-rule="evenodd" d="M7.55729 9.81114C7.60253 9.78284 7.69206 9.62873 7.77024 9.59028C7.84834 9.55063 7.90725 9.54271 7.97751 9.46454C8.0477 9.38293 8.06711 9.33313 8.221 9.26861C8.43626 9.17565 8.2882 9.05559 8.2882 9.05559C8.31191 9.0323 8.33726 9.01074 8.36406 8.99108C8.41961 8.94919 8.48412 8.89819 8.47852 8.80867C8.47061 8.65806 8.44231 8.43944 8.31881 8.31258C8.43888 8.28764 8.66877 8.27069 8.81161 8.23448C8.97692 8.19252 9.05286 8.13361 9.05286 8.13361C9.05286 8.13361 8.95773 7.97165 9.11177 7.80858C9.26581 7.64551 9.39155 7.54807 9.48443 7.36566C9.37796 7.35207 9.21563 7.29547 8.80138 7.45287C8.82374 7.46339 8.84533 7.47549 8.86597 7.48908C8.86597 7.48908 8.61113 7.55934 8.51825 7.63752C8.35622 7.77453 8.33584 7.88668 8.16029 7.97053C7.98475 8.05438 7.80802 8.03169 7.66197 8.09963C7.51592 8.16758 7.49434 8.22537 7.44103 8.25031C7.45238 8.2639 7.43879 8.28652 7.46029 8.30579C7.44671 8.32505 7.36741 8.45415 7.28699 8.45415C7.29491 8.48476 7.36285 8.50739 7.36285 8.50739C7.36285 8.50739 7.31305 8.54367 7.18619 8.55271C7.25071 8.61991 7.31193 8.69316 7.48068 8.79963C7.46709 8.82793 7.41042 8.86989 7.43312 8.92313C7.45805 8.97637 7.52272 9.04887 7.78084 9.10778C7.64942 9.11338 7.49546 9.14399 7.28804 9.1157C7.08076 9.09076 7.04679 9.07605 6.91881 9.10778C6.9324 9.12137 6.96861 9.12137 7.00035 9.15758C6.96637 9.15982 6.75343 9.13265 6.68092 9.22785C6.60506 9.32633 6.57221 9.48836 6.57788 9.59707C6.53824 9.61634 6.49971 9.65031 6.51897 9.72057C6.53824 9.79083 6.63904 9.81346 6.70362 9.85758C6.76813 9.90515 6.77381 9.9221 6.83504 9.91082C6.89955 9.89723 6.99467 9.83272 7.05023 9.83272C7.10578 9.83272 7.14535 9.87461 7.14535 9.87461C7.14535 9.87461 7.29603 9.80211 7.31074 9.8157C7.32433 9.82929 7.31298 9.9165 7.32769 9.93009C7.34262 9.94032 7.51234 9.83951 7.55766 9.81114H7.55729Z" fill="#ECD592"/>
<path fill-rule="evenodd" clip-rule="evenodd" d="M10.85 5.27828C10.1421 3.45014 8.39207 3.11145 8.39207 3.11145H3.39918L3.41845 4.97356H4.41278V9.13167H3.39911V10.9904H8.25386C9.42389 10.9904 10.3618 9.81465 10.3618 9.81465C11.8637 7.68299 10.8499 5.27828 10.8499 5.27828H10.85ZM8.27992 8.56189C8.27992 8.56189 7.89912 9.11129 7.48479 9.11129H6.65599L6.63636 4.97812H7.69998C7.69998 4.97812 8.19278 5.08116 8.53707 6.05638C8.53707 6.05638 8.99351 7.45264 8.27992 8.56189Z" fill="white" fill-opacity="0.8"/>
</g>
<defs>
<clipPath id="clip0_1_134">
<rect width="14" height="14" fill="white"/>
</clipPath>
</defs>
</svg>