
<svg width="14" height="14" viewBox="0 0 14 14" fill="none" xmlns="http://www.w3.org/2000/svg">
<circle cx="7" cy="7" r="7" fill="#FF7F0A"/>
<path d="M10.0938 6.16215C10.2314 5.26317 9.53128 4.77989 8.57397 4.4575L8.88451 3.23971L8.12631 3.05497L7.82398 4.24067C7.62466 4.19211 7.41993 4.1463 7.21651 4.10091L7.521 2.90739L6.76323 2.72266L6.45248 3.94002C6.28749 3.90328 6.12553 3.86697 5.96831 3.82876L5.96918 3.82496L4.92355 3.5697L4.72185 4.36143C4.72185 4.36143 5.2844 4.48748 5.27252 4.49529C5.57961 4.57024 5.6351 4.76891 5.62582 4.92641L5.27209 6.31374C5.29325 6.31902 5.32068 6.32662 5.35092 6.33844C5.32565 6.33232 5.29865 6.32556 5.2708 6.31902L4.77497 8.26246C4.73739 8.35366 4.64217 8.49047 4.42751 8.43853C4.43507 8.4493 3.8764 8.30405 3.8764 8.30405L3.5 9.15257L4.48668 9.39304C4.67024 9.43801 4.85012 9.48509 5.0272 9.52943L4.71343 10.7612L5.47077 10.9459L5.78152 9.72726C5.9884 9.78215 6.18923 9.83283 6.38575 9.88054L6.07608 11.0935L6.83428 11.2782L7.14805 10.0488C8.44095 10.288 9.41316 10.1915 9.82239 9.04827C10.1521 8.12775 9.80597 7.59677 9.12573 7.25052C9.62112 7.13883 9.99428 6.82024 10.0938 6.16215ZM8.36148 8.53713C8.12717 9.45765 6.54188 8.96002 6.02792 8.83524L6.44427 7.20343C6.95823 7.32884 8.60636 7.57713 8.36148 8.53713ZM8.596 6.14885C8.38221 6.98618 7.06275 6.56076 6.63474 6.45646L7.01222 4.97645C7.44024 5.08075 8.81864 5.27541 8.596 6.14885Z" fill="white"/>
</svg>